<svg id="Layer_1" data-name="Layer 1" xmlns="http://www.w3.org/2000/svg" viewBox="0 0 1298.54 789.88"><defs><style>.cls-1{fill:#b7ceeb;}.cls-2{fill:#99b9e2;}.cls-3{fill:#e0e0e0;}.cls-4{fill:#fafbfb;}.cls-13,.cls-18,.cls-5{fill:#fff;}.cls-6{fill:#263238;}.cls-7{fill:#33b44a;}.cls-8{opacity:0.3;}.cls-9{fill:#455b64;}.cls-10{opacity:0.6;}.cls-11{fill:#fbbd9d;}.cls-12{fill:#ec996f;}.cls-13{font-size:50.89px;}.cls-13,.cls-18{font-family:BebasNeue-Regular, Bebas Neue;}.cls-14{letter-spacing:-0.03em;}.cls-15{letter-spacing:0em;}.cls-16{letter-spacing:0em;}.cls-17{letter-spacing:0em;}.cls-18{font-size:18.17px;}.cls-19{letter-spacing:-0.01em;}.cls-20{letter-spacing:-0.05em;}.cls-21{letter-spacing:0em;}.cls-22{letter-spacing:0em;}</style></defs><title>delivery</title><path class="cls-1" d="M1241.15,357.37c1.08-7.89-10.05-14.38-18.41-15.05-4-.32-8.13.29-11.91-1-8.19-2.85-11.46-13.43-19.45-16.8-6-2.52-12.85-.28-18.64,2.64s-11.51,6.58-18,7c-5.63.36-11.74-1.72-16.66,1-3.67,2.05-5.59,6.28-9,8.77s-7.62,3-11.73,3.18-8.35.27-12.09,2-6.83,5.66-6,9.7Z" transform="translate(-59.39 -313.72)"/><rect class="cls-1" x="128.63" y="184.12" width="157.2" height="498.2"/><rect class="cls-2" x="207.22" y="184.12" width="78.6" height="496.83"/><rect class="cls-1" x="146.58" y="135.21" width="55.51" height="48.91"/><rect class="cls-2" x="188.86" y="135.21" width="13.23" height="48.91"/><polyline class="cls-3" points="115.53 184.12 115.53 181.27 290.42 181.27 290.42 184.12"/><rect class="cls-4" x="159.66" y="205.45" width="13.31" height="28.06"/><path class="cls-3" d="M266.62,558.24c0,.3-17.6.54-39.3.54s-39.3-.24-39.3-.54,17.59-.53,39.3-.53S266.62,558,266.62,558.24Z" transform="translate(-59.39 -313.72)"/><rect class="cls-3" x="238.94" y="205.45" width="13.31" height="28.06"/><path class="cls-3" d="M345.9,558.24c0,.3-17.6.54-39.3.54s-39.3-.24-39.3-.54,17.59-.53,39.3-.53S345.9,558,345.9,558.24Z" transform="translate(-59.39 -313.72)"/><rect class="cls-3" x="238.94" y="261.16" width="13.31" height="28.06"/><path class="cls-3" d="M345.9,614c0,.29-17.6.53-39.3.53s-39.3-.24-39.3-.53,17.59-.54,39.3-.54S345.9,613.65,345.9,614Z" transform="translate(-59.39 -313.72)"/><rect class="cls-3" x="238.94" y="318.54" width="13.31" height="28.06"/><path class="cls-3" d="M345.9,671.33c0,.3-17.6.54-39.3.54s-39.3-.24-39.3-.54,17.59-.53,39.3-.53S345.9,671,345.9,671.33Z" transform="translate(-59.39 -313.72)"/><rect class="cls-3" x="238.94" y="375.93" width="13.31" height="28.06"/><path class="cls-3" d="M345.9,728.72c0,.29-17.6.53-39.3.53s-39.3-.24-39.3-.53,17.59-.54,39.3-.54S345.9,728.42,345.9,728.72Z" transform="translate(-59.39 -313.72)"/><rect class="cls-3" x="238.94" y="431.67" width="13.31" height="28.06"/><path class="cls-3" d="M345.9,784.46c0,.3-17.6.54-39.3.54s-39.3-.24-39.3-.54,17.59-.53,39.3-.53S345.9,784.17,345.9,784.46Z" transform="translate(-59.39 -313.72)"/><rect class="cls-3" x="238.94" y="487.64" width="13.31" height="28.06"/><rect class="cls-3" x="238.94" y="544.34" width="13.31" height="28.06"/><path class="cls-3" d="M345.9,840.43c0,.3-17.6.54-39.3.54s-39.3-.24-39.3-.54,17.59-.53,39.3-.53S345.9,840.13,345.9,840.43Z" transform="translate(-59.39 -313.72)"/><rect class="cls-4" x="159.66" y="262.01" width="13.31" height="28.06"/><path class="cls-3" d="M266.62,614.8c0,.29-17.6.53-39.3.53s-39.3-.24-39.3-.53,17.59-.54,39.3-.54S266.62,614.5,266.62,614.8Z" transform="translate(-59.39 -313.72)"/><rect class="cls-4" x="159.66" y="318.56" width="13.31" height="28.06"/><path class="cls-3" d="M266.62,671.35c0,.3-17.6.54-39.3.54s-39.3-.24-39.3-.54,17.59-.53,39.3-.53S266.62,671.06,266.62,671.35Z" transform="translate(-59.39 -313.72)"/><rect class="cls-4" x="159.66" y="375.12" width="13.31" height="28.06"/><path class="cls-3" d="M266.62,727.91c0,.29-17.6.53-39.3.53s-39.3-.24-39.3-.53,17.59-.54,39.3-.54S266.62,727.61,266.62,727.91Z" transform="translate(-59.39 -313.72)"/><rect class="cls-4" x="159.66" y="431.67" width="13.31" height="28.06"/><path class="cls-3" d="M266.62,784.46c0,.3-17.6.54-39.3.54s-39.3-.24-39.3-.54,17.59-.53,39.3-.53S266.62,784.17,266.62,784.46Z" transform="translate(-59.39 -313.72)"/><rect class="cls-4" x="159.66" y="488.23" width="13.31" height="28.06"/><path class="cls-3" d="M266.62,841c0,.29-17.6.53-39.3.53S188,841.31,188,841s17.59-.54,39.3-.54S266.62,840.72,266.62,841Z" transform="translate(-59.39 -313.72)"/><rect class="cls-4" x="159.66" y="544.78" width="13.31" height="28.06"/><rect class="cls-1" x="679.52" y="70.5" width="226.6" height="718.13"/><rect class="cls-2" x="792.82" y="70.5" width="113.3" height="716.16"/><rect class="cls-1" x="705.4" width="80.02" height="70.5"/><rect class="cls-2" x="766.34" width="19.07" height="70.5"/><polyline class="cls-3" points="660.64 70.5 660.64 66.39 912.75 66.39 912.75 70.5"/><rect class="cls-4" x="724.25" y="101.25" width="19.18" height="40.44"/><path class="cls-3" d="M852.21,471.29c0,.42-25.36.77-56.64.77s-56.66-.35-56.66-.77,25.36-.77,56.66-.77S852.21,470.86,852.21,471.29Z" transform="translate(-59.39 -313.72)"/><rect class="cls-3" x="838.53" y="101.25" width="19.18" height="40.44"/><path class="cls-3" d="M966.5,471.29c0,.42-25.37.77-56.65.77s-56.65-.35-56.65-.77,25.36-.77,56.65-.77S966.5,470.86,966.5,471.29Z" transform="translate(-59.39 -313.72)"/><rect class="cls-3" x="838.53" y="181.55" width="19.18" height="40.44"/><path class="cls-3" d="M966.5,551.58c0,.43-25.37.78-56.65.78s-56.65-.35-56.65-.78,25.36-.77,56.65-.77S966.5,551.16,966.5,551.58Z" transform="translate(-59.39 -313.72)"/><rect class="cls-3" x="838.53" y="264.27" width="19.18" height="40.44"/><path class="cls-3" d="M966.5,634.3c0,.43-25.37.78-56.65.78s-56.65-.35-56.65-.78,25.36-.77,56.65-.77S966.5,633.88,966.5,634.3Z" transform="translate(-59.39 -313.72)"/><rect class="cls-3" x="838.53" y="346.99" width="19.18" height="40.44"/><path class="cls-3" d="M966.5,717c0,.43-25.37.77-56.65.77s-56.65-.34-56.65-.77,25.36-.77,56.65-.77S966.5,716.6,966.5,717Z" transform="translate(-59.39 -313.72)"/><rect class="cls-3" x="838.53" y="427.34" width="19.18" height="40.44"/><path class="cls-3" d="M966.5,797.38c0,.42-25.37.77-56.65.77s-56.65-.35-56.65-.77,25.36-.78,56.65-.78S966.5,797,966.5,797.38Z" transform="translate(-59.39 -313.72)"/><rect class="cls-3" x="838.53" y="508.02" width="19.18" height="40.44"/><rect class="cls-3" x="838.53" y="589.75" width="19.18" height="40.44"/><path class="cls-3" d="M966.5,878.05c0,.43-25.37.78-56.65.78s-56.65-.35-56.65-.78,25.36-.77,56.65-.77S966.5,877.63,966.5,878.05Z" transform="translate(-59.39 -313.72)"/><rect class="cls-4" x="724.25" y="182.77" width="19.18" height="40.44"/><path class="cls-3" d="M852.21,552.81c0,.43-25.36.77-56.64.77s-56.66-.34-56.66-.77,25.36-.77,56.66-.77S852.21,552.38,852.21,552.81Z" transform="translate(-59.39 -313.72)"/><rect class="cls-4" x="724.25" y="264.29" width="19.18" height="40.44"/><path class="cls-3" d="M852.21,634.33c0,.43-25.36.77-56.64.77s-56.66-.34-56.66-.77,25.36-.77,56.66-.77S852.21,633.91,852.21,634.33Z" transform="translate(-59.39 -313.72)"/><rect class="cls-4" x="724.25" y="345.82" width="19.18" height="40.44"/><path class="cls-3" d="M852.21,715.85c0,.43-25.36.78-56.64.78s-56.66-.35-56.66-.78,25.36-.77,56.66-.77S852.21,715.43,852.21,715.85Z" transform="translate(-59.39 -313.72)"/><rect class="cls-4" x="724.25" y="427.34" width="19.18" height="40.44"/><path class="cls-3" d="M852.21,797.38c0,.42-25.36.77-56.64.77s-56.66-.35-56.66-.77,25.36-.78,56.66-.78S852.21,797,852.21,797.38Z" transform="translate(-59.39 -313.72)"/><rect class="cls-4" x="724.25" y="508.86" width="19.18" height="40.44"/><path class="cls-3" d="M852.21,878.9c0,.42-25.36.77-56.64.77s-56.66-.35-56.66-.77,25.36-.77,56.66-.77S852.21,878.47,852.21,878.9Z" transform="translate(-59.39 -313.72)"/><rect class="cls-4" x="724.25" y="590.38" width="19.18" height="40.44"/><rect class="cls-1" x="862.28" y="396.27" width="123.8" height="392.34"/><rect class="cls-2" x="924.18" y="396.27" width="61.9" height="391.26"/><rect class="cls-1" x="876.42" y="357.75" width="43.72" height="38.52"/><rect class="cls-2" x="909.72" y="357.75" width="10.42" height="38.52"/><polyline class="cls-3" points="851.97 396.27 851.97 394.02 989.7 394.02 989.7 396.27"/><rect class="cls-4" x="886.72" y="413.07" width="10.48" height="22.1"/><path class="cls-3" d="M983.57,757.55c0,.24-13.85.43-30.94.43s-31-.19-31-.43,13.85-.42,31-.42S983.57,757.32,983.57,757.55Z" transform="translate(-59.39 -313.72)"/><rect class="cls-3" x="949.16" y="413.07" width="10.48" height="22.1"/><path class="cls-3" d="M1046,757.55c0,.24-13.86.43-31,.43s-30.95-.19-30.95-.43,13.86-.42,30.95-.42S1046,757.32,1046,757.55Z" transform="translate(-59.39 -313.72)"/><rect class="cls-3" x="949.16" y="456.93" width="10.48" height="22.1"/><path class="cls-3" d="M1046,801.42c0,.24-13.86.42-31,.42s-30.95-.18-30.95-.42S998,801,1015.06,801,1046,801.19,1046,801.42Z" transform="translate(-59.39 -313.72)"/><rect class="cls-3" x="949.16" y="502.13" width="10.48" height="22.1"/><path class="cls-3" d="M1046,846.62c0,.23-13.86.42-31,.42s-30.95-.19-30.95-.42,13.86-.43,30.95-.43S1046,846.38,1046,846.62Z" transform="translate(-59.39 -313.72)"/><rect class="cls-3" x="949.16" y="547.32" width="10.48" height="22.1"/><path class="cls-3" d="M1046,891.81c0,.23-13.86.42-31,.42s-30.95-.19-30.95-.42,13.86-.42,30.95-.42S1046,891.58,1046,891.81Z" transform="translate(-59.39 -313.72)"/><rect class="cls-3" x="949.16" y="591.22" width="10.48" height="22.1"/><path class="cls-3" d="M1046,935.71c0,.23-13.86.42-31,.42s-30.95-.19-30.95-.42,13.86-.42,30.95-.42S1046,935.48,1046,935.71Z" transform="translate(-59.39 -313.72)"/><rect class="cls-3" x="949.16" y="635.3" width="10.48" height="22.1"/><rect class="cls-3" x="949.16" y="679.95" width="10.48" height="22.1"/><path class="cls-3" d="M1046,979.79c0,.23-13.86.42-31,.42s-30.95-.19-30.95-.42,13.86-.43,30.95-.43S1046,979.55,1046,979.79Z" transform="translate(-59.39 -313.72)"/><rect class="cls-4" x="886.72" y="457.6" width="10.48" height="22.1"/><path class="cls-3" d="M983.57,802.09c0,.24-13.85.42-30.94.42s-31-.18-31-.42,13.85-.42,31-.42S983.57,801.86,983.57,802.09Z" transform="translate(-59.39 -313.72)"/><rect class="cls-4" x="886.72" y="502.14" width="10.48" height="22.1"/><path class="cls-3" d="M983.57,846.63c0,.23-13.85.42-30.94.42s-31-.19-31-.42,13.85-.42,31-.42S983.57,846.4,983.57,846.63Z" transform="translate(-59.39 -313.72)"/><rect class="cls-4" x="886.72" y="546.68" width="10.48" height="22.1"/><path class="cls-3" d="M983.57,891.17c0,.23-13.85.42-30.94.42s-31-.19-31-.42,13.85-.42,31-.42S983.57,890.94,983.57,891.17Z" transform="translate(-59.39 -313.72)"/><rect class="cls-4" x="886.72" y="591.22" width="10.48" height="22.1"/><path class="cls-3" d="M983.57,935.71c0,.23-13.85.42-30.94.42s-31-.19-31-.42,13.85-.42,31-.42S983.57,935.48,983.57,935.71Z" transform="translate(-59.39 -313.72)"/><rect class="cls-4" x="886.72" y="635.76" width="10.48" height="22.1"/><path class="cls-3" d="M983.57,980.25c0,.23-13.85.42-30.94.42s-31-.19-31-.42,13.85-.43,31-.43S983.57,980,983.57,980.25Z" transform="translate(-59.39 -313.72)"/><rect class="cls-4" x="886.72" y="680.3" width="10.48" height="22.1"/><rect class="cls-3" x="231.95" y="535.66" width="133.28" height="252.95"/><rect class="cls-2" x="302.74" y="535.66" width="62.49" height="252.95"/><rect class="cls-1" x="259.9" y="559.46" width="11.98" height="29.12"/><rect class="cls-1" x="259.9" y="673.41" width="11.98" height="29.11"/><path class="cls-1" d="M362.13,913.73c0,.25-15.85.45-35.39.45s-35.4-.2-35.4-.45,15.85-.46,35.4-.46S362.13,913.47,362.13,913.73Z" transform="translate(-59.39 -313.72)"/><rect class="cls-1" x="259.9" y="616.87" width="11.98" height="29.11"/><path class="cls-1" d="M362.13,971.13c0,.25-15.85.46-35.39.46s-35.4-.21-35.4-.46,15.85-.45,35.4-.45S362.13,970.88,362.13,971.13Z" transform="translate(-59.39 -313.72)"/><rect class="cls-3" x="316.01" y="559.46" width="11.98" height="29.12"/><rect class="cls-3" x="342.01" y="559.46" width="11.98" height="29.12"/><rect class="cls-3" x="316.01" y="614.71" width="11.98" height="29.11"/><rect class="cls-3" x="342.01" y="614.71" width="11.98" height="29.11"/><rect class="cls-3" x="316.01" y="669.96" width="11.98" height="29.12"/><rect class="cls-3" x="342.01" y="669.96" width="11.98" height="29.12"/><rect class="cls-3" x="221.93" y="529.54" width="153.32" height="6.34"/><path class="cls-2" d="M425.55,850.2c0,.25-29.79.45-66.52.45s-66.54-.2-66.54-.45,29.78-.45,66.54-.45S425.55,850,425.55,850.2Z" transform="translate(-59.39 -313.72)"/><polygon class="cls-2" points="233.47 788.44 18.82 788.44 17.89 449.19 232.54 449.19 233.47 788.44"/><rect class="cls-3" x="125.21" y="449.19" width="107.33" height="339.24"/><rect class="cls-2" x="42.4" y="382.41" width="75.8" height="66.79"/><rect class="cls-3" x="100.13" y="382.41" width="18.07" height="66.79"/><rect class="cls-3" y="445.3" width="238.82" height="3.9"/><rect class="cls-5" x="60.26" y="478.32" width="18.17" height="38.31"/><path class="cls-3" d="M184.61,845.39c0,.4-24,.73-53.66.73s-53.67-.33-53.67-.73,24-.73,53.67-.73S184.61,845,184.61,845.39Z" transform="translate(-59.39 -313.72)"/><rect class="cls-1" x="168.52" y="478.32" width="18.17" height="38.31"/><path class="cls-2" d="M292.87,845.39c0,.4-24,.73-53.66.73s-53.67-.33-53.67-.73,24-.73,53.67-.73S292.87,845,292.87,845.39Z" transform="translate(-59.39 -313.72)"/><rect class="cls-1" x="168.52" y="554.39" width="18.17" height="38.31"/><path class="cls-2" d="M292.87,921.45c0,.41-24,.74-53.66.74s-53.67-.33-53.67-.74,24-.73,53.67-.73S292.87,921.05,292.87,921.45Z" transform="translate(-59.39 -313.72)"/><rect class="cls-1" x="168.52" y="632.74" width="18.17" height="38.31"/><path class="cls-2" d="M292.87,999.81c0,.41-24,.73-53.66.73s-53.67-.32-53.67-.73,24-.73,53.67-.73S292.87,999.41,292.87,999.81Z" transform="translate(-59.39 -313.72)"/><rect class="cls-1" x="168.52" y="711.1" width="18.17" height="38.31"/><path class="cls-2" d="M292.87,1078.17c0,.4-24,.73-53.66.73s-53.67-.33-53.67-.73,24-.73,53.67-.73S292.87,1077.77,292.87,1078.17Z" transform="translate(-59.39 -313.72)"/><rect class="cls-5" x="60.26" y="555.55" width="18.17" height="38.31"/><path class="cls-3" d="M184.61,922.61c0,.41-24,.74-53.66.74s-53.67-.33-53.67-.74,24-.73,53.67-.73S184.61,922.21,184.61,922.61Z" transform="translate(-59.39 -313.72)"/><rect class="cls-5" x="60.26" y="632.77" width="18.17" height="38.31"/><path class="cls-3" d="M184.61,999.84c0,.4-24,.73-53.66.73s-53.67-.33-53.67-.73,24-.73,53.67-.73S184.61,999.44,184.61,999.84Z" transform="translate(-59.39 -313.72)"/><rect class="cls-5" x="60.26" y="710" width="18.17" height="38.31"/><path class="cls-3" d="M184.61,1077.06c0,.41-24,.74-53.66.74s-53.67-.33-53.67-.74,24-.73,53.67-.73S184.61,1076.66,184.61,1077.06Z" transform="translate(-59.39 -313.72)"/><path class="cls-1" d="M1310.37,576.86c1.55-11.28-14.36-20.55-26.32-21.51-5.7-.46-11.62.41-17-1.47-11.7-4.08-16.37-19.2-27.79-24-8.54-3.6-18.36-.4-26.64,3.77s-16.45,9.4-25.7,10c-8,.52-16.77-2.46-23.81,1.46-5.24,2.93-8,9-12.82,12.54s-10.9,4.22-16.76,4.54-11.94.38-17.28,2.83-9.76,8.09-8.65,13.86Z" transform="translate(-59.39 -313.72)"/><rect class="cls-2" x="1125.86" y="664.47" width="172.68" height="124.14"/><path class="cls-1" d="M1231.57,978.19c.24,0,0,26.21,0,26.21h-12.78V978.19Z" transform="translate(-59.39 -313.72)"/><rect class="cls-3" x="1271.59" y="978.19" width="86.34" height="124.14" transform="translate(2570.13 1766.8) rotate(180)"/><rect class="cls-5" x="1131.13" y="764.31" width="23.11" height="16.36"/><rect class="cls-5" x="1158.51" y="764.31" width="11.56" height="16.36"/><rect class="cls-2" x="1169.7" y="583.64" width="112.43" height="80.83"/><path class="cls-1" d="M1259.25,897.36c.16,0,0,17.07,0,17.07h-8.32V897.36Z" transform="translate(-59.39 -313.72)"/><rect class="cls-3" x="1285.31" y="897.36" width="56.22" height="80.83" transform="translate(2567.45 1561.83) rotate(180)"/><rect class="cls-5" x="1173.13" y="648.65" width="15.05" height="10.65"/><rect class="cls-5" x="1190.96" y="648.65" width="7.52" height="10.65"/><path class="cls-2" d="M192.27,360.18c.88-6.38-8.13-11.64-14.9-12.18-3.23-.26-6.58.23-9.64-.83-6.63-2.31-9.27-10.87-15.74-13.6-4.83-2-10.4-.23-15.09,2.13s-9.31,5.33-14.55,5.66c-4.55.3-9.5-1.39-13.48.83-3,1.66-4.53,5.08-7.26,7.1s-6.17,2.39-9.49,2.57-6.76.22-9.79,1.6-5.53,4.59-4.9,7.85Z" transform="translate(-59.39 -313.72)"/><path class="cls-2" d="M1341.73,489.77c.86-6.23-7.93-11.35-14.53-11.89-3.15-.25-6.42.23-9.4-.81-6.47-2.25-9-10.6-15.35-13.26-4.72-2-10.15-.22-14.72,2.08s-9.09,5.2-14.19,5.52c-4.44.29-9.27-1.36-13.15.81-2.9,1.62-4.42,5-7.09,6.92s-6,2.34-9.25,2.51-6.6.21-9.55,1.56-5.39,4.47-4.78,7.66Z" transform="translate(-59.39 -313.72)"/><path class="cls-1" d="M390,399.7c1.61-11.66-14.85-21.25-27.21-22.25-5.9-.47-12,.43-17.61-1.52-12.1-4.22-16.94-19.85-28.75-24.83-8.83-3.73-19-.41-27.55,3.89s-17,9.73-26.58,10.35c-8.32.53-17.36-2.56-24.63,1.51-5.43,3-8.27,9.27-13.27,13s-11.27,4.37-17.33,4.7-12.35.39-17.88,2.92-10.09,8.37-8.94,14.34Z" transform="translate(-59.39 -313.72)"/><path class="cls-6" d="M1357.3,1102.33c0,.27-284,.49-634.28.49s-634.34-.22-634.34-.49,284-.48,634.34-.48S1357.3,1102.06,1357.3,1102.33Z" transform="translate(-59.39 -313.72)"/><path class="cls-7" d="M596.14,1024.45a15,15,0,0,1,9.53,7,26.51,26.51,0,0,1,3.59,11.49c.81,7.79-1.82,16.41-5.13,23.51-7.63-4.18-11.25-13.6-12.78-18.49-2.42-7.74-2.11-23.19,4.79-23.47" transform="translate(-59.39 -313.72)"/><path class="cls-7" d="M614.32,1077.32a12.87,12.87,0,0,1,1.44-12.84,17.08,17.08,0,0,1,11.46-6.55c2.07-.29,4.4-.18,5.94,1.24a5.5,5.5,0,0,1,1.28,5.42,11.25,11.25,0,0,1-3.16,4.86c-4.78,4.7-10.27,8.37-17,7.87" transform="translate(-59.39 -313.72)"/><path class="cls-6" d="M611.24,1102.42a8.65,8.65,0,0,1-.12-1.61c0-1.14-.09-2.61-.15-4.39-.07-3.68-.27-8.93,1.39-14.44a27.65,27.65,0,0,1,7.42-12.41,18.75,18.75,0,0,1,3.56-2.61,11.88,11.88,0,0,1,1.07-.54c.25-.11.39-.16.4-.14a25.49,25.49,0,0,0-11.9,15.87c-1.64,5.39-1.51,10.58-1.54,14.27,0,1.85,0,3.35,0,4.39A8.27,8.27,0,0,1,611.24,1102.42Z" transform="translate(-59.39 -313.72)"/><path class="cls-6" d="M596.94,1036.23a3.33,3.33,0,0,1,.23.67l.54,1.93c.47,1.68,1.11,4.12,1.88,7.15,1.53,6,3.54,14.43,5.55,23.73s3.62,17.78,4.71,23.92c.54,3.07,1,5.56,1.23,7.29q.18,1.21.3,2a5.22,5.22,0,0,1,.07.7,3.09,3.09,0,0,1-.18-.68c-.11-.51-.24-1.16-.41-2-.34-1.78-.82-4.24-1.41-7.24-1.18-6.13-2.87-14.57-4.87-23.88s-3.94-17.69-5.38-23.76c-.71-3-1.28-5.42-1.7-7.18l-.44-2A3,3,0,0,1,596.94,1036.23Z" transform="translate(-59.39 -313.72)"/><path class="cls-7" d="M604.27,1084.38a30.12,30.12,0,0,0-20.79-18c-2.36-.55-5.3-.61-6.71,1.37s-.39,4.76,1,6.78A25.73,25.73,0,0,0,604.25,1085" transform="translate(-59.39 -313.72)"/><path class="cls-6" d="M586.11,1073.36a7,7,0,0,1,1.48.29,15.71,15.71,0,0,1,1.72.48,22.89,22.89,0,0,1,2.22.8,26.32,26.32,0,0,1,2.61,1.19,29.27,29.27,0,0,1,2.85,1.63,33.53,33.53,0,0,1,5.8,4.82,32.46,32.46,0,0,1,4.45,6.08,25.81,25.81,0,0,1,1.44,3,23.71,23.71,0,0,1,1,2.68c.3.83.43,1.61.61,2.29a14.06,14.06,0,0,1,.33,1.75,7.55,7.55,0,0,1,.16,1.5c-.13,0-.37-2.13-1.48-5.41a27.1,27.1,0,0,0-1-2.63,29.07,29.07,0,0,0-1.46-2.89,32,32,0,0,0-10.09-10.71,31.27,31.27,0,0,0-2.78-1.66,26.41,26.41,0,0,0-2.54-1.23C588.19,1073.93,586.07,1073.47,586.11,1073.36Z" transform="translate(-59.39 -313.72)"/><path class="cls-7" d="M1188.41,1082.84c.71-2.73-1.08-5.47-3.09-7.44s-4.4-3.76-5.44-6.37c-1.69-4.24.58-9.73-2.3-13.27-1.7-2.08-4.74-2.78-6.25-5a11.32,11.32,0,0,1-1.35-4,40.37,40.37,0,0,0-10-18.78,35,35,0,0,0,3.94,18.1c1.17,2.22,2.6,4.39,3,6.87.63,4-1.62,8.18-.63,12.14,1.13,4.53,6.21,7.56,6.45,12.21.21,3.94-3.23,7.4-3,11.34a10.73,10.73,0,0,0,1.75,4.67c3,5.06,7.52,8.55,14.3,8.43l8.31.29Z" transform="translate(-59.39 -313.72)"/><g class="cls-8"><path d="M1188.41,1082.84c.71-2.73-1.08-5.47-3.09-7.44s-4.4-3.76-5.44-6.37c-1.69-4.24.58-9.73-2.3-13.27-1.7-2.08-4.74-2.78-6.25-5a11.32,11.32,0,0,1-1.35-4,40.37,40.37,0,0,0-10-18.78,35,35,0,0,0,3.94,18.1c1.17,2.22,2.6,4.39,3,6.87.63,4-1.62,8.18-.63,12.14,1.13,4.53,6.21,7.56,6.45,12.21.21,3.94-3.23,7.4-3,11.34a10.73,10.73,0,0,0,1.75,4.67c3,5.06,7.52,8.55,14.3,8.43l8.31.29Z" transform="translate(-59.39 -313.72)"/></g><path class="cls-6" d="M1195.76,1102.28a6.45,6.45,0,0,0,2.29,0,13.37,13.37,0,0,0,2.69-.68,11.45,11.45,0,0,0,3.34-1.82,4.73,4.73,0,0,0,1.37-1.83,8.7,8.7,0,0,0,.39-2.48,25.2,25.2,0,0,1,.19-2.69,7.37,7.37,0,0,1,1-2.67c1-1.72,2.6-3.35,3.13-5.68s.16-4.79-.23-7.28-.76-5.21.2-7.81,2.71-4.94,3.62-7.87.48-6.13.68-9.27a12.14,12.14,0,0,1,1.08-4.61c.67-1.47,1.6-2.86,2.33-4.41,1.47-3.13,1.73-6.67,2.14-10.15.19-1.75.39-3.52.59-5.31a25.92,25.92,0,0,1,.93-5.31,47.63,47.63,0,0,1,2-5.14,17.35,17.35,0,0,0,1-2.68,25.53,25.53,0,0,0,.26-2.86,32.62,32.62,0,0,0-.22-5.75c-.22-1.91-.57-3.81-.77-5.73,0-.12,0-.23,0-.34l0-.38-.34.17a12.82,12.82,0,0,0-4.48,3.78,20.35,20.35,0,0,0-2.74,5.06c-1.39,3.57-1.89,7.31-2.59,10.87a29.52,29.52,0,0,1-3.41,10.05c-.91,1.48-2,2.83-3,4.27a11.85,11.85,0,0,0-2.06,4.73c-.49,3.52,1.45,6.6,1,9.71a10.59,10.59,0,0,1-1.51,4.31c-.75,1.33-1.64,2.56-2.48,3.8a24.63,24.63,0,0,0-2.23,3.83,12.15,12.15,0,0,0-1,4.16c-.2,2.81.19,5.46,0,8a18.39,18.39,0,0,1-2,6.83c-1,2-2.12,3.89-3.06,5.68a27.59,27.59,0,0,0-1.26,2.65,13.2,13.2,0,0,0-.73,2.62,16.84,16.84,0,0,0-.06,4.74,11.87,11.87,0,0,0,2.38,6,7.08,7.08,0,0,0,.67.73,3.91,3.91,0,0,0,.54.46c.31.23.48.33.48.33a10.61,10.61,0,0,1-1.61-1.59,12,12,0,0,1-2.25-6,16.51,16.51,0,0,1,.1-4.68,12.72,12.72,0,0,1,.74-2.56,28.19,28.19,0,0,1,1.26-2.61c1-1.78,2.08-3.62,3.1-5.67a18.54,18.54,0,0,0,2.12-7c.22-2.56-.16-5.23,0-8a11.54,11.54,0,0,1,1-4,24,24,0,0,1,2.2-3.75c.84-1.23,1.74-2.47,2.52-3.82a11.37,11.37,0,0,0,1.58-4.49c.4-3.31-1.52-6.42-1-9.68a11.25,11.25,0,0,1,2-4.53c1-1.42,2.06-2.77,3-4.28a30,30,0,0,0,3.49-10.22c.71-3.59,1.21-7.29,2.57-10.78a19.82,19.82,0,0,1,2.68-4.93,12.37,12.37,0,0,1,4.28-3.62l-.38-.21c0,.1,0,.22,0,.33.2,2,.55,3.85.77,5.75a32.53,32.53,0,0,1,.22,5.66,27.67,27.67,0,0,1-.25,2.77,17.49,17.49,0,0,1-.93,2.59,49.64,49.64,0,0,0-2,5.19,26.79,26.79,0,0,0-.93,5.4c-.2,1.79-.39,3.56-.59,5.31-.4,3.49-.66,7-2.08,10-.7,1.51-1.63,2.9-2.32,4.42a12.78,12.78,0,0,0-1.11,4.78c-.18,3.2.23,6.34-.63,9.18s-2.68,5.18-3.59,7.86-.58,5.51-.18,8,.8,4.94.27,7.15-2.06,3.84-3.06,5.61a7.77,7.77,0,0,0-1,2.78,21.58,21.58,0,0,0-.17,2.72,8.76,8.76,0,0,1-.36,2.41,4.47,4.47,0,0,1-1.29,1.75,11.11,11.11,0,0,1-3.25,1.83,14.48,14.48,0,0,1-2.66.73,11,11,0,0,1-1.69.16C1196,1102.27,1195.76,1102.28,1195.76,1102.28Z" transform="translate(-59.39 -313.72)"/><path class="cls-6" d="M1222,1004.44a.76.76,0,0,0-.08.25c-.05.2-.11.44-.18.75-.17.65-.36,1.64-.67,2.87s-1.08,2.62-1.73,4.34a60.39,60.39,0,0,0-2,5.89c-.64,2.22-1.2,4.68-1.78,7.31a30.91,30.91,0,0,1-2.66,8.11c-.68,1.35-1.45,2.72-2.06,4.21a19.5,19.5,0,0,0-1.19,4.77,95.67,95.67,0,0,1-1.8,10c-1.66,6.81-3.25,13.29-4.69,19.19s-2.81,11.19-3.94,15.66l-2.61,10.56c-.28,1.22-.51,2.18-.68,2.88-.06.3-.12.55-.16.75a.74.74,0,0,0,0,.26.9.9,0,0,0,.09-.25l.22-.73.78-2.86c.66-2.53,1.61-6.11,2.77-10.52s2.52-9.75,4.05-15.62,3-12.39,4.74-19.2a97.31,97.31,0,0,0,1.78-10.09,19.08,19.08,0,0,1,1.15-4.65c.59-1.46,1.35-2.81,2-4.18A30.88,30.88,0,0,0,1216,1026c.57-2.65,1.1-5.1,1.71-7.31s1.25-4.18,1.89-5.88,1.34-3.12,1.65-4.39.44-2.25.57-2.91c.06-.31.1-.56.13-.76A.86.86,0,0,0,1222,1004.44Z" transform="translate(-59.39 -313.72)"/><path class="cls-7" d="M1197.22,1102.31c5.43-3.23,7-13,4.72-18.91s-6.22-11.27-6.83-17.55c-.47-4.83,1.11-9.79,0-14.5-1.52-6.37-7.74-11.31-7.67-17.85,0-3.68,2.13-7.13,2-10.8-.21-4.5-3.66-8.08-5.8-12-3.28-6.07-3.49-13.25-4.61-20s-3.72-14.09-9.75-17.44c-.89,5.78-2.41,9.74-1.93,17.56.17,2.81,3.43,8.2,3.88,14.36.26,3.68.45,7.37.67,11s.45,7.24,1.74,10.59c1,2.57,2.57,4.91,3.3,7.56,1.37,5-.43,10.4.68,15.46.94,4.29,3.91,8,4.51,12.32.85,6.11-3.1,12.45-1.08,18.28,1,2.89,3.39,5.21,4.06,8.19.52,2.32,0,4.77.43,7.1.76,3.74,7.91,6.65,11.73,6.42" transform="translate(-59.39 -313.72)"/><path class="cls-6" d="M1170.74,978.91a1.54,1.54,0,0,0,0,.32c0,.25.07.56.12.95.13.84.27,2.06.55,3.65s1.12,3.38,1.78,5.55,1.38,4.64,2,7.42,1.14,5.87,1.68,9.18a38.57,38.57,0,0,0,2.78,10.38c.76,1.74,1.61,3.47,2.26,5.32a24.44,24.44,0,0,1,1.14,5.86,119.61,119.61,0,0,0,1.59,12.64c1.66,8.56,3.24,16.72,4.69,24.14s2.88,14,4,19.66,2.11,10.08,2.77,13.24q.49,2.31.78,3.6.13.57.21.93a1.59,1.59,0,0,0,.1.31,1.92,1.92,0,0,0,0-.32c0-.24-.1-.55-.17-.94-.16-.87-.39-2.08-.68-3.62-.62-3.17-1.5-7.7-2.6-13.28s-2.45-12.28-3.92-19.68-3-15.57-4.64-24.13a118.64,118.64,0,0,1-1.6-12.6,24.22,24.22,0,0,0-1.18-6c-.66-1.89-1.53-3.64-2.29-5.36a37.91,37.91,0,0,1-2.79-10.25c-.57-3.31-1.11-6.4-1.75-9.19s-1.36-5.28-2.08-7.44-1.53-3.95-1.86-5.5-.48-2.79-.64-3.61c-.07-.39-.13-.71-.18-.95A1.49,1.49,0,0,0,1170.74,978.91Z" transform="translate(-59.39 -313.72)"/><rect class="cls-9" x="556.7" y="636.1" width="243.81" height="76.45"/><polygon class="cls-6" points="386.32 601.5 386.32 702.57 469.56 702.57 502.93 654.2 1110.79 654.2 1110.79 601.5 386.32 601.5"/><path class="cls-7" d="M440.51,595.24a6.18,6.18,0,0,0-6.42-5.85c-32.9,1.35-189.11,8.51-221.23,24-24.58,11.82-51.52,56-70.51,85.72-13.61,21.32-43.69,68.64-49.77,92.83-5.15,20.49-8.26,63-7.9,84.14l8.59,111.7H234.83L249,950.83a62.3,62.3,0,0,1,58.15-39.94H447.83V725.52Z" transform="translate(-59.39 -313.72)"/><path class="cls-9" d="M196.08,625.7c-19.48,18.6-39,50.3-53.73,73.36-12.6,19.73-39.32,61.77-48,87.09-.16.47-.29.91-.44,1.37,4.31-1.19,10.94-3.63,13-7.71,3.1-6.2,7.09-27.41,56.29-107.53C178.13,647.87,192.72,633.58,196.08,625.7Z" transform="translate(-59.39 -313.72)"/><path class="cls-6" d="M367.8,617.44c-36.19,2.06-114.66,7.36-139.73,15.95-32.67,11.2-69.32,97.63-71,101.42L132.3,798a2.77,2.77,0,0,0,2.62,3.64h63.85a20.28,20.28,0,0,0,7.07-1.28l168-62.57a19.42,19.42,0,0,0,12.64-18.2V635.05A17.63,17.63,0,0,0,367.8,617.44Z" transform="translate(-59.39 -313.72)"/><path class="cls-9" d="M139.41,795.46S163.1,742.36,171,725c12-26.27,40.09-80.07,59-85.75,17.43-5.23,67.54-11.6,138.08-15.63l.67,0a11.43,11.43,0,0,1,11.4,11.44v86.49a10.48,10.48,0,0,1-6.8,9.79L249.35,746.65A34.53,34.53,0,0,0,224.72,762l-21.51,32.78a11.25,11.25,0,0,1-3.94.71Z" transform="translate(-59.39 -313.72)"/><path class="cls-6" d="M244.85,747.62l-42.24,47,23.34-156,5.84-2L220.31,752.14a3.4,3.4,0,0,0,4.65,3.49Z" transform="translate(-59.39 -313.72)"/><path class="cls-2" d="M81.91,886.87c-.15-2,.54-3.68,1.57-3.77L106.1,881c1.9-.17,3.6,3.33,3.82,7.52l1,17.36c.16,2.78-.67,5.14-1.92,5.35l-23.06,4c-1,.18-2-1.36-2.19-3.41Z" transform="translate(-59.39 -313.72)"/><rect class="cls-6" x="22.5" y="654.22" width="162.96" height="65.34"/><circle class="cls-6" cx="350.27" cy="1012.41" r="89.16" transform="translate(-98.04 -299.51) rotate(-2.2)"/><path class="cls-6" d="M261.14,1010.9a1.64,1.64,0,0,0,0,.22,89.16,89.16,0,1,0,178.3,2.58c0-.08,0-.16,0-.23Z" transform="translate(-59.39 -313.72)"/><path class="cls-4" d="M287.68,1011.51a62.6,62.6,0,1,0,63.49-61.69A62.6,62.6,0,0,0,287.68,1011.51Z" transform="translate(-59.39 -313.72)"/><path class="cls-3" d="M351.17,949.82a62.59,62.59,0,0,0-63.49,61.69l125.18,1.8A62.6,62.6,0,0,0,351.17,949.82Z" transform="translate(-59.39 -313.72)"/><path class="cls-6" d="M312.14,1011.86a38.13,38.13,0,1,0,38.68-37.58A38.14,38.14,0,0,0,312.14,1011.86Z" transform="translate(-59.39 -313.72)"/><rect class="cls-6" x="95.82" y="360.35" width="36.96" height="88.7" rx="7.98"/><path class="cls-6" d="M139.92,817.6h-1.86V723.82A16.89,16.89,0,0,1,154.93,707h4.45v1.86h-4.45a15,15,0,0,0-15,15Z" transform="translate(-59.39 -313.72)"/><path class="cls-6" d="M152.59,817.72,147.42,730a11,11,0,0,1,11-11.7v1.86a9.18,9.18,0,0,0-9.17,9.73l5.17,87.7Z" transform="translate(-59.39 -313.72)"/><rect class="cls-6" x="73.98" y="495.43" width="25.08" height="29.04"/><rect class="cls-6" x="79.59" y="440.33" width="10.2" height="1.86"/><path class="cls-6" d="M234.25,620s.75-.12,2.22-.3l6.53-.77L268.29,616l94.24-10.73c5-.54,10.15-1.21,15.45-1.68a29,29,0,0,1,8.08.54,30.06,30.06,0,0,1,7.76,2.93,28.83,28.83,0,0,1,11.73,12.19,27.4,27.4,0,0,1,2.7,8.39,33.14,33.14,0,0,1,.39,4.47v4.48c0,24,0,49.8.05,77.12,0,54.65,0,115.42.06,180.35v.47h-98c-5.58,0-11.18-.13-16.69.78a65.12,65.12,0,0,0-51.4,41.05,51.21,51.21,0,0,0-2,6.09,49.81,49.81,0,0,0-1.42,6.24l-.49,3.16-.23,1.57-.08,1.59-.17,3.18-.08,1.59v.2c.43-.42-.57.63-.49.52H211l-97,0h-.45V960c0-28,0-55.05,0-80.87q0-19.36,0-37.81,0-9.22,0-18.19c0-3,0-6,0-8.91s.28-5.9.63-8.79a88.24,88.24,0,0,1,10.53-32q7.68-14.45,14.84-27.88c9.54-17.91,18.35-34.43,26.33-49.4L187.3,656q2.34-4.4,4.52-8.46c.74-1.35,1.39-2.71,2.17-4A39,39,0,0,1,196.5,640a52.86,52.86,0,0,1,11.27-10.47,56.36,56.36,0,0,1,19.29-8.39,47.32,47.32,0,0,1,7.19-1.17l-1.82.27c-1.2.19-3,.5-5.33,1a56.91,56.91,0,0,0-19.16,8.48,52.69,52.69,0,0,0-11.15,10.46,38.17,38.17,0,0,0-2.47,3.53c-.77,1.25-1.42,2.62-2.15,4q-2.16,4.08-4.49,8.48c-6.22,11.73-13.34,25.18-21.28,40.17s-16.72,31.52-26.22,49.45L125.37,773.7A87.62,87.62,0,0,0,115,805.5c-.34,2.87-.55,5.78-.61,8.71s0,5.92,0,8.9q0,9,0,18.19,0,18.44,0,37.81c0,25.82,0,52.84,0,80.87l-.45-.45,97,0h26.73c.13-.1-.9.88-.47.44v-.2l.08-1.61.17-3.23.08-1.61.24-1.6.49-3.21A65.38,65.38,0,0,1,241.79,936,66,66,0,0,1,294,894.33c5.6-.93,11.28-.77,16.83-.8h97.5l-.47.48c0-64.93,0-125.7.06-180.35,0-27.32,0-53.11.05-77.12a53.84,53.84,0,0,0-.37-8.84,26.43,26.43,0,0,0-2.62-8.19,28.12,28.12,0,0,0-11.44-11.91,29.64,29.64,0,0,0-7.57-2.89,28.44,28.44,0,0,0-7.9-.53c-5.25.45-10.4,1.12-15.42,1.65l-94.28,10.44L243,619.05l-6.54.69C235,619.89,234.25,620,234.25,620Z" transform="translate(-59.39 -313.72)"/><path class="cls-6" d="M379.06,825.5s.51,0,1.45-.21a10.24,10.24,0,0,0,3.83-1.53,9.78,9.78,0,0,0,3.89-5.06,11,11,0,0,0,.5-4,10,10,0,0,0-1.13-4.33,9.65,9.65,0,0,0-8.39-5.11l-12.27,0-28.13,0a9.52,9.52,0,0,0-9.45,8.45,10.66,10.66,0,0,0,1.17,6.43,9.65,9.65,0,0,0,4.65,4.13c1.92.86,4,.73,6.06.74l6,0,10.69,0,15.49.15,4.21.09a8.49,8.49,0,0,1,1.47.1,9.41,9.41,0,0,1-1.47.09l-4.21.09-15.49.15-10.69.06-6,0c-1,0-2,0-3.15,0a10.24,10.24,0,0,1-3.24-.74,10.48,10.48,0,0,1-5.11-4.5,11.54,11.54,0,0,1-1.3-7,10.47,10.47,0,0,1,10.37-9.3l28.13,0,12.29.05a10.29,10.29,0,0,1,10.1,10.21,11.44,11.44,0,0,1-.6,4.19,10.07,10.07,0,0,1-4.19,5.2,9.55,9.55,0,0,1-4,1.4A6.15,6.15,0,0,1,379.06,825.5Z" transform="translate(-59.39 -313.72)"/><path class="cls-5" d="M375.61,802.14c0,.26-7.14.47-15.94.47s-15.95-.21-15.95-.47,7.14-.47,15.95-.47S375.61,801.88,375.61,802.14Z" transform="translate(-59.39 -313.72)"/><path class="cls-6" d="M252.27,1033.82l-14.84-1.08c3.89-53.29,9.58-85.16,17.4-97.45,15-23.62,30-27.89,46.54-30.72,15.41-2.63,30.95-2,46-1.39l3.69.15c31,1.21,96,.13,96.66.12l.25,14.88c-.65,0-66.06,1.09-97.49-.13l-3.71-.15c-14.26-.58-29-1.18-42.87,1.19-14.8,2.53-24.63,5.41-36.49,24C263.8,948.92,257.06,968.18,252.27,1033.82Z" transform="translate(-59.39 -313.72)"/><rect class="cls-7" x="396.24" y="113.09" width="732.79" height="487.9"/><path class="cls-6" d="M1179.63,905.06c0-3.14-.15-182.09-.38-467.23l.38.39-716.1.1h0l.48-.49c0,166.08,0,324.16,0,467.23l-.44-.45,716.15.45-716.15.44H463v-.44c0-143.07,0-301.15,0-467.23v-.48h.54l716.1.1h.39v.38C1179.78,723,1179.64,901.92,1179.63,905.06Z" transform="translate(-59.39 -313.72)"/><polygon class="cls-4" points="953.69 245.71 1063.38 220.01 1059.06 208.34 953.69 245.71"/><polygon class="cls-4" points="462.58 327.78 538.83 309.92 535.82 301.81 462.58 327.78"/><polygon class="cls-4" points="723.66 511.52 833.35 485.82 829.02 474.16 723.66 511.52"/><path class="cls-4" d="M351.39,657.86s-.21.22-.68.57l-2,1.48c-1.79,1.26-4.4,3.06-7.65,5.26-6.49,4.4-15.53,10.38-25.61,16.84s-19.29,12.17-26,16.24c-3.36,2-6.09,3.65-8,4.75l-2.19,1.25a3.16,3.16,0,0,1-.8.37,3.36,3.36,0,0,1,.69-.54l2.11-1.4,7.81-5,25.84-16.47,25.75-16.59,7.83-5,2.15-1.32A2.72,2.72,0,0,1,351.39,657.86Z" transform="translate(-59.39 -313.72)"/><path class="cls-4" d="M319.67,666.26s-.21.22-.67.57L317,668.31c-1.79,1.26-4.41,3.06-7.66,5.26-6.49,4.4-15.53,10.38-25.6,16.84s-19.29,12.17-26,16.24c-3.36,2-6.08,3.65-8,4.75l-2.2,1.25a3.16,3.16,0,0,1-.8.37,3.29,3.29,0,0,1,.7-.54l2.1-1.4,7.82-5,25.83-16.47L308.92,673l7.82-5,2.15-1.32A3,3,0,0,1,319.67,666.26Z" transform="translate(-59.39 -313.72)"/><path class="cls-4" d="M163.09,720.4a5.4,5.4,0,0,1-.57-1.63c-.31-1.07-.72-2.62-1.17-4.56a66.73,66.73,0,0,1-2-15.43,33.39,33.39,0,0,1,3.55-15.15,21.53,21.53,0,0,1,2.63-3.94c.73-.85,1.2-1.26,1.24-1.22s-1.57,1.92-3.26,5.47a35.71,35.71,0,0,0-3.19,14.85A80.29,80.29,0,0,0,162,714.07,50.47,50.47,0,0,1,163.09,720.4Z" transform="translate(-59.39 -313.72)"/><path class="cls-4" d="M87.4,852.26a8.32,8.32,0,0,1-.1-2.08c0-1.33,0-3.27.11-5.65.16-4.78.5-11.37,1.07-18.64s1.27-13.84,1.87-18.58c.29-2.37.56-4.29.77-5.61a8,8,0,0,1,.43-2,9.44,9.44,0,0,1,0,2.08q-.19,2.31-.47,5.63c-.43,5-1,11.44-1.58,18.58s-1,13.61-1.35,18.6q-.25,3.33-.42,5.64A8.49,8.49,0,0,1,87.4,852.26Z" transform="translate(-59.39 -313.72)"/><path class="cls-4" d="M291.18,888.38c0,.19-3.58.71-9.14,2.5a72.55,72.55,0,0,0-9.5,3.86,78.2,78.2,0,0,0-10.71,6.5,79.14,79.14,0,0,0-9.42,8.28,71.57,71.57,0,0,0-6.52,7.91c-3.38,4.77-4.95,8.07-5.13,8a12.65,12.65,0,0,1,1-2.34,26.94,26.94,0,0,1,1.42-2.65c.6-1,1.24-2.18,2.1-3.38a65.59,65.59,0,0,1,6.44-8.13,73.06,73.06,0,0,1,9.49-8.45,74.71,74.71,0,0,1,10.9-6.53,65.59,65.59,0,0,1,9.68-3.7c1.41-.47,2.72-.72,3.86-1a28.14,28.14,0,0,1,2.95-.57A12.82,12.82,0,0,1,291.18,888.38Z" transform="translate(-59.39 -313.72)"/><path class="cls-4" d="M474.35,776.08a4.9,4.9,0,0,1-.05-.8c0-.57,0-1.35-.06-2.34,0-2.12-.07-5.15-.12-9-.11-7.89-.27-19.21-.46-33.18-.51-28.06-1.2-66.73-2-109.46S470.27,539.82,470,511.8c-.13-14-.17-25.34-.16-33.18,0-3.88.05-6.91.07-9,0-1,0-1.77,0-2.35a6.3,6.3,0,0,1,0-.8,3.87,3.87,0,0,1,.05.8c0,.58,0,1.35.06,2.35,0,2.11.07,5.14.12,9,.11,7.88.27,19.2.47,33.17.5,28.06,1.19,66.74,2,109.48s1.42,81.44,1.67,109.46c.13,14,.17,25.35.16,33.18,0,3.88-.05,6.91-.06,9,0,1,0,1.77,0,2.34A4.9,4.9,0,0,1,474.35,776.08Z" transform="translate(-59.39 -313.72)"/><circle class="cls-6" cx="1008.88" cy="1012.41" r="89.16" transform="translate(-98.96 -272.68) rotate(-2.29)"/><path class="cls-6" d="M919.74,1010.9c0,.07,0,.15,0,.22A89.15,89.15,0,1,0,1098,1013.7a1.76,1.76,0,0,0,0-.23Z" transform="translate(-59.39 -313.72)"/><path class="cls-4" d="M946.29,1011.51a62.59,62.59,0,1,0,63.49-61.69A62.6,62.6,0,0,0,946.29,1011.51Z" transform="translate(-59.39 -313.72)"/><path class="cls-3" d="M1009.78,949.82a62.59,62.59,0,0,0-63.49,61.69l125.17,1.8A62.59,62.59,0,0,0,1009.78,949.82Z" transform="translate(-59.39 -313.72)"/><path class="cls-6" d="M970.75,1011.86a38.13,38.13,0,1,0,38.68-37.58A38.14,38.14,0,0,0,970.75,1011.86Z" transform="translate(-59.39 -313.72)"/><path class="cls-9" d="M891.67,1036.84s-13.58-126.45,117.47-126.45c120.92,0,118.22,108.78,117.08,125.6h-19s9.66-107.2-98.12-107.2-98.39,109.38-98.39,109.38S902.79,1037.74,891.67,1036.84Z" transform="translate(-59.39 -313.72)"/><path class="cls-4" d="M961.87,923.46a5.1,5.1,0,0,1-1,.37c-.68.23-1.7.48-3,.92a88.85,88.85,0,0,0-10.65,4.16,85.15,85.15,0,0,0-46.9,55.86,88.86,88.86,0,0,0-2.26,11.2c-.21,1.34-.28,2.39-.39,3.1a4.79,4.79,0,0,1-.19,1.07,5,5,0,0,1,0-1.09c0-.71,0-1.77.21-3.12a77.27,77.27,0,0,1,2-11.34,83.36,83.36,0,0,1,47.29-56.31,77.65,77.65,0,0,1,10.82-3.89c1.31-.39,2.35-.58,3-.75A4.14,4.14,0,0,1,961.87,923.46Z" transform="translate(-59.39 -313.72)"/><path class="cls-9" d="M1283.76,1052.16l15.87,23.84,7.11,22.48a2.94,2.94,0,0,0,3.87,1.84h0a2.92,2.92,0,0,0,1.77-2c1.45-5.88,6.68-27.53,5.42-29.21-1.46-1.94-15.06-26.25-15.06-26.25Z" transform="translate(-59.39 -313.72)"/><g class="cls-10"><path class="cls-5" d="M1310.61,1100.32l6.16-32.86.65,1a4.39,4.39,0,0,1,.64,3c-.39,2.77-1.64,10.42-5.61,26.79a2.92,2.92,0,0,1-1.84,2.06Z" transform="translate(-59.39 -313.72)"/></g><g class="cls-10"><path class="cls-5" d="M1306.86,1062.8a1.78,1.78,0,0,0,.83,2.22,1.72,1.72,0,0,0,2.21-.8,1.89,1.89,0,0,0-.89-2.35,1.77,1.77,0,0,0-2.2,1.09" transform="translate(-59.39 -313.72)"/></g><path class="cls-6" d="M1309.45,1086.25a8.92,8.92,0,0,0-3.32-.54c-1.87.17-3,1.36-3.12,1.23s.13-.43.64-.87a4.71,4.71,0,0,1,2.42-1,4.55,4.55,0,0,1,2.56.46C1309.23,1085.86,1309.49,1086.19,1309.45,1086.25Z" transform="translate(-59.39 -313.72)"/><path class="cls-6" d="M1309.77,1090.58c0,.18-1.32-.12-2.8.32a21.62,21.62,0,0,0-2.55,1.19c-.15-.08.69-1.33,2.38-1.8S1309.86,1090.43,1309.77,1090.58Z" transform="translate(-59.39 -313.72)"/><path class="cls-6" d="M1310,1080.06c0,.19-2-.27-4.36.2s-4,1.59-4.12,1.44,1.46-1.58,4-2.06S1310.1,1079.92,1310,1080.06Z" transform="translate(-59.39 -313.72)"/><path class="cls-6" d="M1305.81,1072.42c0,.18-1.66.47-3.44,1.51s-2.9,2.33-3,2.21.8-1.66,2.72-2.76S1305.81,1072.25,1305.81,1072.42Z" transform="translate(-59.39 -313.72)"/><path class="cls-6" d="M1301.33,1065.3c0,.19-1.84.23-3.63,1.48s-2.53,2.92-2.69,2.83,0-.49.35-1.17a6.42,6.42,0,0,1,4.75-3.24C1300.87,1065.12,1301.33,1065.22,1301.33,1065.3Z" transform="translate(-59.39 -313.72)"/><path class="cls-6" d="M1296.89,1065.4a2.46,2.46,0,0,1-.61-.9,7.54,7.54,0,0,1-.79-2.85,3.3,3.3,0,0,1,.36-2.11,1.16,1.16,0,0,1,1.26-.49,1.9,1.9,0,0,1,1.07.85,4.13,4.13,0,0,1-1,5.18,4.8,4.8,0,0,1-5.33.4,1.64,1.64,0,0,1-.81-1.13,1.15,1.15,0,0,1,.69-1.16,4.08,4.08,0,0,1,2.12-.18,8.41,8.41,0,0,1,2.84.83,2.53,2.53,0,0,1,.9.6,13.37,13.37,0,0,0-3.78-1,3.83,3.83,0,0,0-1.84.2.61.61,0,0,0-.38.63,1.14,1.14,0,0,0,.57.72,4.32,4.32,0,0,0,4.63-.4,3.61,3.61,0,0,0,.92-4.39,1.39,1.39,0,0,0-.72-.63.64.64,0,0,0-.7.26,3,3,0,0,0-.34,1.78A11.19,11.19,0,0,0,1296.89,1065.4Z" transform="translate(-59.39 -313.72)"/><path class="cls-9" d="M1268.7,1065.8l-1.82,23.93s23.76,8.13,23.85,12.59l-46.56-.11,1.3-37.4Z" transform="translate(-59.39 -313.72)"/><g class="cls-10"><path class="cls-5" d="M1252.58,1087.14a1.91,1.91,0,0,0-1.4,2.12,1.83,1.83,0,0,0,2.09,1.4,2,2,0,0,0,1.47-2.25,1.9,1.9,0,0,0-2.33-1.22" transform="translate(-59.39 -313.72)"/></g><g class="cls-10"><path class="cls-5" d="M1244.17,1102.21l.13-3.77,45,1.67a3.22,3.22,0,0,1,1.71,2.55Z" transform="translate(-59.39 -313.72)"/></g><path class="cls-6" d="M1267.65,1089.52c0,.23-1.16.29-2.3,1s-1.79,1.62-2,1.52.18-1.4,1.59-2.2S1267.71,1089.32,1267.65,1089.52Z" transform="translate(-59.39 -313.72)"/><path class="cls-6" d="M1272.45,1091.73c0,.23-1,.57-1.77,1.5s-1.07,1.94-1.3,1.92-.32-1.31.71-2.44S1272.45,1091.52,1272.45,1091.73Z" transform="translate(-59.39 -313.72)"/><path class="cls-6" d="M1275,1097.68c-.21,0-.48-1.1.15-2.32s1.71-1.68,1.8-1.49-.59.84-1.1,1.85S1275.21,1097.67,1275,1097.68Z" transform="translate(-59.39 -313.72)"/><path class="cls-6" d="M1267.46,1084c-.11.21-1.14-.15-2.42-.11s-2.31.4-2.42.2.88-1,2.4-1S1267.58,1083.85,1267.46,1084Z" transform="translate(-59.39 -313.72)"/><g class="cls-8"><polygon points="1208.94 756.82 1208.62 761.08 1185.77 759.97 1185.89 756.12 1208.94 756.82"/></g><path class="cls-6" d="M1267.73,1079.19a4.37,4.37,0,0,1-2.33-.11,10,10,0,0,1-2.4-.84,11.67,11.67,0,0,1-1.31-.76,3.12,3.12,0,0,1-.69-.58,1,1,0,0,1,0-1.21,1.22,1.22,0,0,1,1-.48,3,3,0,0,1,.87.15,8.36,8.36,0,0,1,3.52,2.05c1,1,1.38,1.91,1.3,1.95s-.6-.66-1.67-1.53a9,9,0,0,0-2-1.25,7.62,7.62,0,0,0-1.32-.47c-.49-.15-.91-.17-1,.05s-.06.11,0,.26a2.24,2.24,0,0,0,.5.42,13.12,13.12,0,0,0,1.2.75,12.4,12.4,0,0,0,2.22,1A16.62,16.62,0,0,1,1267.73,1079.19Z" transform="translate(-59.39 -313.72)"/><path class="cls-6" d="M1267.42,1079.5a3.71,3.71,0,0,1-.52-2.27,7.56,7.56,0,0,1,.42-2.54,7.24,7.24,0,0,1,.65-1.39,1.94,1.94,0,0,1,1.53-1.12,1.1,1.1,0,0,1,1,.69,3,3,0,0,1,.2.86,4.81,4.81,0,0,1-.06,1.57,5.22,5.22,0,0,1-1.09,2.37c-1,1.17-1.91,1.4-1.93,1.33s.74-.53,1.48-1.66a5.27,5.27,0,0,0,.82-2.16,4.36,4.36,0,0,0,0-1.35c-.05-.49-.22-.9-.4-.86s-.64.35-.85.73a8,8,0,0,0-.63,1.24,8.57,8.57,0,0,0-.54,2.31C1267.34,1078.61,1267.55,1079.47,1267.42,1079.5Z" transform="translate(-59.39 -313.72)"/><path class="cls-6" d="M1285.71,868.79s8.54,17.5,10.77,30c.63,3.54-24.45,182.94-24.45,182.94l-29.64-1.12,13.88-166.94-4.94-33.5Z" transform="translate(-59.39 -313.72)"/><path class="cls-6" d="M1213.69,879.73a265.48,265.48,0,0,0,2,36.27c2.19,17.59,7.22,37.62,8.85,48.82,3.62,24.77,10.71,29.45,10.71,29.45l56.88,72.78,22.28-20.07-50.14-80.22s-13.36-89-12.89-86.61S1213.69,879.73,1213.69,879.73Z" transform="translate(-59.39 -313.72)"/><path class="cls-9" d="M1236.31,995.3a7.53,7.53,0,0,0,.53.76l1.62,2.09,6,7.69,19.5,25.53c7.6,10,14.53,19,19.66,25.42,2.55,3.22,4.66,5.8,6.13,7.57l1.72,2a4.13,4.13,0,0,0,.63.67,5.46,5.46,0,0,0-.53-.75l-1.62-2.1-6-7.69-19.5-25.53c-7.6-10-14.53-19-19.66-25.42-2.55-3.22-4.66-5.8-6.13-7.57l-1.72-2A4.13,4.13,0,0,0,1236.31,995.3Z" transform="translate(-59.39 -313.72)"/><path class="cls-9" d="M1230,893.36a6.26,6.26,0,0,1-.79,2.83,18.2,18.2,0,0,1-10.17,9.53,6.36,6.36,0,0,1-2.88.61c-.11-.29,4.33-1.34,8.25-5.07S1229.68,893.24,1230,893.36Z" transform="translate(-59.39 -313.72)"/><path class="cls-9" d="M1291.34,883.21c.09.24-1.87,1-4.35.6s-4.13-1.63-4-1.84,1.87.57,4.14.89S1291.28,882.93,1291.34,883.21Z" transform="translate(-59.39 -313.72)"/><path class="cls-9" d="M1259.32,907.94a6.31,6.31,0,0,1,.21,1.18c.11.86.25,2,.43,3.42.34,3.09.83,7.41,1.43,12.76,1.15,11,2.74,26.12,4.56,43.43l-.07-.21,8.24,13.17c11.16,18,21.26,34.21,28.62,46.07,3.59,5.85,6.51,10.62,8.58,14,1,1.61,1.73,2.89,2.29,3.84a9.53,9.53,0,0,1,.75,1.37,9.14,9.14,0,0,1-.91-1.27c-.61-.92-1.42-2.17-2.45-3.74l-8.84-13.85-28.86-45.91L1265.08,969l-.06-.09v-.11c-1.69-17.31-3.17-32.49-4.23-43.45-.49-5.37-.88-9.7-1.15-12.79-.12-1.43-.2-2.58-.27-3.44A6.78,6.78,0,0,1,1259.32,907.94Z" transform="translate(-59.39 -313.72)"/><path class="cls-9" d="M1250.69,751.59l17.77,5.7,1.35,37.63s9.55,44.11,11.61,49.73a114.74,114.74,0,0,1,5.42,20.61s-3.42,25-28.36,27.89-48.15-11.39-48.15-11.39-8.33-37.18-16-70.55c-7.25-31.76-1.36-50.7-1.36-50.7l27.34-9.81Z" transform="translate(-59.39 -313.72)"/><rect class="cls-4" x="1247.77" y="773.5" width="16.43" height="4.22" transform="translate(-143.48 -157.21) rotate(-6.9)"/><path class="cls-6" d="M1267.79,727.43a3.8,3.8,0,0,0-4-3.08,3.12,3.12,0,0,0-.39-5.22,6.41,6.41,0,0,0-1.31-8.47l-18.75,25.82a13.61,13.61,0,0,0,10.34,2.83,27.51,27.51,0,0,0,10.31-3.68,4.27,4.27,0,0,0,2.06-1.89c.35-.88-.16-2.14-1.12-2.15A3.81,3.81,0,0,0,1267.79,727.43Z" transform="translate(-59.39 -313.72)"/><path class="cls-6" d="M1221.27,713.41a1.76,1.76,0,0,0-1.94,2.74,3.1,3.1,0,0,0-3.22,4.44,6.08,6.08,0,0,0-3.8,1,3.55,3.55,0,0,0-1.5,3.48,2.55,2.55,0,0,0,3,1.94,3.42,3.42,0,0,0,.18,3.68,2.24,2.24,0,0,0,3.38.1,2.75,2.75,0,0,0,.11,3.29,2.77,2.77,0,0,0,3.22.69,2.91,2.91,0,0,0,4.7,2.94Z" transform="translate(-59.39 -313.72)"/><path class="cls-11" d="M1222.43,708.46l-.81,45.73a14.21,14.21,0,0,0,13,14.42h0a14.21,14.21,0,0,0,15.47-13.84c.1-4.35.16-7.92.16-7.92s11.15-.74,12.26-11.73c.64-6.35.82-20.86.86-32a14.48,14.48,0,0,0-13.22-14.47l-6.64-.59A20.44,20.44,0,0,0,1222.43,708.46Z" transform="translate(-59.39 -313.72)"/><path class="cls-12" d="M1250.22,746.85a26.73,26.73,0,0,1-14-5.5s2.83,8.32,13.9,8.29Z" transform="translate(-59.39 -313.72)"/><path class="cls-11" d="M1225.4,717c-.18-.1-7.36-2.9-7.78,4.64s7.23,6.41,7.26,6.2S1225.4,717,1225.4,717Z" transform="translate(-59.39 -313.72)"/><path class="cls-12" d="M1222.74,724.89s-.14.09-.37.17a1.29,1.29,0,0,1-1,0,3.26,3.26,0,0,1-1.34-3,4.37,4.37,0,0,1,.47-1.86,1.53,1.53,0,0,1,1-1,.67.67,0,0,1,.75.41c.09.21,0,.36.07.38s.17-.12.13-.43a.79.79,0,0,0-.27-.49,1,1,0,0,0-.72-.24,1.86,1.86,0,0,0-1.43,1.1,4.35,4.35,0,0,0-.58,2.07c0,1.52.66,3,1.74,3.37a1.42,1.42,0,0,0,1.21-.13C1222.71,725.07,1222.76,724.91,1222.74,724.89Z" transform="translate(-59.39 -313.72)"/><path class="cls-6" d="M1221.24,716.42a4,4,0,0,1,3.46,2.17c.39,1.12.39,2.35.79,3.46s1.41,2.19,2.58,2a2.33,2.33,0,0,0,1.72-1.58,6.33,6.33,0,0,0,.23-2.42c-.13-3.55-.56-7.1-.39-10.65a18.09,18.09,0,0,1,3.13-10c2.12-2.85,5.73-4.77,9.23-4.17,2.32.4,4.36,1.8,6.65,2.33a9.21,9.21,0,0,0,7.86-1.87c.28-.23,1.52-.9,1.52-.9a4.29,4.29,0,0,0-.59-2.39c-4.23-4.67-12.42-6.59-18.64-5.6s-12.31,4.78-15.43,10.26-3,13.47-2.12,19.37" transform="translate(-59.39 -313.72)"/><path class="cls-6" d="M1264.71,701.25c-1.18,2.2-3.81,3.31-6.31,3.34a20,20,0,0,1-7.25-1.72A58,58,0,0,0,1240,700.2c-.37,0-.82-.07-1-.4s.24-.91.66-1.18c3.5-2.28,11.57-3.15,15.75-3s8.39,2.37,10.33,6.07" transform="translate(-59.39 -313.72)"/><path class="cls-9" d="M1263.61,701.44a13.46,13.46,0,0,0-8.81-5c-8.48-1.13-24.84,2.25-33.93,17,0,0-1.31-6.41-1-9.76.19-2.24,2.71-15.44,16.79-18.42C1236.65,685.29,1258,679.23,1263.61,701.44Z" transform="translate(-59.39 -313.72)"/><path class="cls-9" d="M1222.34,710.66A54.48,54.48,0,0,1,1240.58,696c7-3.56,18.33-6.69,26.07-8a16.59,16.59,0,0,1,7-.12c2.28.61,4.41,2.35,4.78,4.68.47,2.91-5,6.86-7.51,8.38a78.4,78.4,0,0,1-7.6,3.63s.53-5.28-7.83-7.12C1244.12,695,1222.34,710.66,1222.34,710.66Z" transform="translate(-59.39 -313.72)"/><path class="cls-6" d="M1275.13,688.25c-.05.12-.84-.3-2.41-.37a33.93,33.93,0,0,0-6.63.45,100.42,100.42,0,0,0-21.19,6,57.94,57.94,0,0,0-18.59,11.52,26.82,26.82,0,0,0-4.25,5.1c-.82,1.34-1.14,2.16-1.22,2.13s0-.23.16-.63a11.81,11.81,0,0,1,.73-1.69,23.7,23.7,0,0,1,4.09-5.39,54.91,54.91,0,0,1,18.72-11.94,89.72,89.72,0,0,1,21.45-5.8,28.7,28.7,0,0,1,6.77-.14,6.36,6.36,0,0,1,1.8.45C1275,688.12,1275.14,688.22,1275.13,688.25Z" transform="translate(-59.39 -313.72)"/><path class="cls-4" d="M1247.92,691.18a27.4,27.4,0,0,1,8.58-2.1,10.75,10.75,0,0,0-2.14-1.56,21.73,21.73,0,0,0-6.69,1.61Z" transform="translate(-59.39 -313.72)"/><path class="cls-6" d="M1264.88,705.19a3.35,3.35,0,0,0-2.48-5.28,3,3,0,0,0,1.6-4.16,3.86,3.86,0,0,0-4.39-1.72,5.39,5.39,0,0,0-3.44,3.5,3.61,3.61,0,0,0-6.17.25,2,2,0,0,0-2.37-1.22,6.43,6.43,0,0,0-2.53,1.5,4.51,4.51,0,0,1-2.65,1.2l-.66.28a4.14,4.14,0,0,0,5.25,1.58,2.91,2.91,0,0,0,5.37,1.61,2.9,2.9,0,0,0,4.59,1.59,3.77,3.77,0,0,0,5.77,1.62,6.23,6.23,0,0,1,.71,5.1,3.35,3.35,0,0,0,1.4-5.85Z" transform="translate(-59.39 -313.72)"/><path class="cls-6" d="M1233.42,703.38a48.13,48.13,0,0,0-7.48,4.12,16,16,0,0,0-5.49,6.41l3.68,3.55c1,.34,1.82.7,2.63,0a3.14,3.14,0,0,0,1.07-2.86,2.75,2.75,0,0,0,3.22-3.88,2.16,2.16,0,0,0,1.55-1.49,2,2,0,0,1,1.43-3.51A2.21,2.21,0,0,0,1233.42,703.38Z" transform="translate(-59.39 -313.72)"/><path class="cls-9" d="M1268.46,757.29s11,6.6,14.31,12.47,20.9,48.78,20.17,55.75-17.23,11.37-17.23,11.37l-17.25-22.37,7.89-4.71-7.89-15.1Z" transform="translate(-59.39 -313.72)"/><path class="cls-11" d="M1285.71,836.88s-40,8-54.46-9.21l4.2-14.6s26.4,6.24,34.64,3.56Z" transform="translate(-59.39 -313.72)"/><path class="cls-6" d="M1289.83,801.39c.15.29-4.68,2.32-9.72,6.17s-8.23,8-8.48,7.8a10.44,10.44,0,0,1,1.94-2.82,36.48,36.48,0,0,1,13-10A10.1,10.1,0,0,1,1289.83,801.39Z" transform="translate(-59.39 -313.72)"/><path class="cls-6" d="M1277,809.28c-.26.1-1.76-3.15-3.6-7.13s-3.5-7.14-3.26-7.28,2.27,2.84,4.14,6.87S1277.25,809.18,1277,809.28Z" transform="translate(-59.39 -313.72)"/><path class="cls-6" d="M1269.77,791.31c.18,0-.26-2.82-1-6.23s-1.43-6.13-1.61-6.09.27,2.82,1,6.22S1269.6,791.35,1269.77,791.31Z" transform="translate(-59.39 -313.72)"/><path class="cls-9" d="M1198,762.79c.76.79,11.74,8.07,15.4,20.54s7.71,25.31,7.71,25.31l14.3,1.83-8.07,33s-17.24-1.83-26.77-17.6-15.41-35.21-15.41-35.21S1186.42,750.7,1198,762.79Z" transform="translate(-59.39 -313.72)"/><path class="cls-11" d="M1230.54,809.84s-6.07-13.58-6.88-13.76-12.53-4.3-12.53-4.3a4.31,4.31,0,0,0,0,3l-4.2.53s.62,2.6,2,3l-1.52,1.34a8.5,8.5,0,0,0,2.87,2.43,3.15,3.15,0,0,0,2.77,0s-.54,1,1.88,2.49,6.53,3.76,6.53,3.76Z" transform="translate(-59.39 -313.72)"/><path class="cls-12" d="M1221.51,808.28h0s-4.15-2.26-6.54-3.76c-2-1.29-2-2.19-1.92-2.46a3.26,3.26,0,0,1-2.73,0,8.59,8.59,0,0,1-2.87-2.44l0,0,1.5-1.33c-1.39-.41-2-2.85-2-3v0l4.2-.54a4.38,4.38,0,0,1,0-2.94v0h0c.12,0,11.73,4.11,12.53,4.29s6.65,13.22,6.9,13.78l0,0Zm-10.35-13.56,0,0-4.22.54c.08.3.72,2.57,2,2.9h.06l-1.55,1.36a8.44,8.44,0,0,0,2.84,2.4,3.11,3.11,0,0,0,2.74,0l.1-.06,0,.1s-.49,1,1.87,2.46,6.37,3.67,6.52,3.75l9,1.58c-2.11-4.7-6.21-13.55-6.84-13.69s-11.85-4.06-12.5-4.29A4.19,4.19,0,0,0,1211.16,794.72Z" transform="translate(-59.39 -313.72)"/><path class="cls-12" d="M1211.5,794.79c0,.17,3.38,1.5,7.68,3,1.06.38,2.13.67,3,1.07a4,4,0,0,1,1.75,1.67c.7,1.26,1,2.18,1.07,2.14a5.37,5.37,0,0,0-.67-2.35,4.23,4.23,0,0,0-1.88-2,26.18,26.18,0,0,0-3-1.16C1215.09,795.69,1211.56,794.62,1211.5,794.79Z" transform="translate(-59.39 -313.72)"/><path class="cls-12" d="M1208.77,798.24a6.2,6.2,0,0,0,2.12.77c1.35.36,3.24.66,5.25,1.21a13.66,13.66,0,0,1,4.75,2.23c1.07.83,1.54,1.55,1.63,1.49a4.09,4.09,0,0,0-1.34-1.83,11.82,11.82,0,0,0-4.87-2.51c-2.07-.56-4-.79-5.32-1A11,11,0,0,0,1208.77,798.24Z" transform="translate(-59.39 -313.72)"/><path class="cls-12" d="M1219.52,804.42c.11-.12-1-1.26-2.81-1.9s-3.4-.47-3.39-.31,1.48.29,3.17.91S1219.4,804.57,1219.52,804.42Z" transform="translate(-59.39 -313.72)"/><path class="cls-11" d="M1234.22,814l36-18.19,6.6,13.46s-33.24,32.93-48.81,32.51" transform="translate(-59.39 -313.72)"/><path class="cls-6" d="M1212.31,775.85a11.24,11.24,0,0,0,.49,2.67c.38,1.62.94,3.86,1.61,6.32s1.3,4.67,1.79,6.27a11.57,11.57,0,0,0,.92,2.54,11.45,11.45,0,0,0-.48-2.66c-.38-1.63-1-3.86-1.62-6.32s-1.3-4.67-1.79-6.27A11.45,11.45,0,0,0,1212.31,775.85Z" transform="translate(-59.39 -313.72)"/><path class="cls-6" d="M1213.86,820.65c.12,0,.44-1.66,1.27-4.24a13.93,13.93,0,0,1,2.17-4.17,7.68,7.68,0,0,1,4.67-3c2-.28,3.94.34,5.72.66l4.72.93a7.55,7.55,0,0,1,1.74.45,1.66,1.66,0,0,1,.87.89,1.42,1.42,0,0,1,0,1.09c0,.06.5-.31.29-1.16a1.86,1.86,0,0,0-1-1.13,7.12,7.12,0,0,0-1.81-.58l-4.69-1.07c-1.76-.34-3.72-1-5.93-.71a8.08,8.08,0,0,0-5,3.22,13.21,13.21,0,0,0-2.14,4.39,29.06,29.06,0,0,0-.71,3.19A4.21,4.21,0,0,0,1213.86,820.65Z" transform="translate(-59.39 -313.72)"/><path class="cls-6" d="M1209,813.41c.17.1,1.13-2.61,3.9-4.5s5.54-2.21,5.49-2.42a3.86,3.86,0,0,0-1.82.13,11.26,11.26,0,0,0-4,1.76,9.73,9.73,0,0,0-3,3.29A3.52,3.52,0,0,0,1209,813.41Z" transform="translate(-59.39 -313.72)"/><path class="cls-6" d="M1185.2,790.67a3.37,3.37,0,0,0,.2.7c.17.52.39,1.17.66,2l2.49,7.25c1.07,3,2.32,6.71,4.11,10.62s3.89,8.1,6.43,12.37a42.16,42.16,0,0,0,9,10.67,38,38,0,0,0,9.67,6,29.51,29.51,0,0,0,7.4,2.08,19.35,19.35,0,0,0,2.08.18,3.42,3.42,0,0,0,.73,0c0-.07-1-.11-2.78-.43a31.58,31.58,0,0,1-7.25-2.25,41.22,41.22,0,0,1-18.29-16.62c-2.52-4.21-4.57-8.47-6.45-12.29s-3.09-7.49-4.22-10.52-2-5.5-2.68-7.18l-.77-1.94A3.21,3.21,0,0,0,1185.2,790.67Z" transform="translate(-59.39 -313.72)"/><path class="cls-6" d="M1195.55,763.65c-.06.18,2.75,1.19,5.9,3.05s5.39,3.84,5.52,3.69-2-2.34-5.2-4.24S1195.59,763.5,1195.55,763.65Z" transform="translate(-59.39 -313.72)"/><path class="cls-6" d="M1222.91,851.29a12.5,12.5,0,0,0,1.85.93c.6.29,1.34.62,2.23,1s1.87.77,3,1.14a71.13,71.13,0,0,0,8,2.33,74.85,74.85,0,0,0,20.39,1.8,72.19,72.19,0,0,0,8.33-.88c1.18-.16,2.23-.41,3.16-.6s1.72-.38,2.36-.55a12.61,12.61,0,0,0,2-.6,14.21,14.21,0,0,0-2,.35c-.65.14-1.44.31-2.38.45s-2,.37-3.16.51c-2.34.34-5.15.6-8.28.74a80,80,0,0,1-20.24-1.79,82.15,82.15,0,0,1-8-2.18c-1.14-.34-2.13-.74-3-1s-1.65-.61-2.26-.86A12.73,12.73,0,0,0,1222.91,851.29Z" transform="translate(-59.39 -313.72)"/><path class="cls-6" d="M1252.21,870c0,.17,3.35-.5,7.3-1.82s7-2.77,6.93-2.92-3.21,1-7.13,2.32S1252.16,869.84,1252.21,870Z" transform="translate(-59.39 -313.72)"/><g class="cls-8"><path d="M1279.74,837.86c-8.52,1.35-16.54,2-25,.37-3.06-.6-6.15-1.59-9.23-1.12-2.53.38-4.8,1.72-7.17,2.72A28.06,28.06,0,0,1,1212,837.1c2.4,5.26,8,8.59,13.65,9.58s11.55,0,17.14-1.53c3.35-.89,6.69-1.95,10.15-2,4.39-.13,8.69,1.3,13.08,1.38,4.83.09,10.42-1.31,14.23-4.28Z" transform="translate(-59.39 -313.72)"/></g><g class="cls-8"><path d="M1265.46,866.5a23.16,23.16,0,0,1-17.57,11.09,11.46,11.46,0,0,1-4.63-.38,5.8,5.8,0,0,1-3.5-2.91,16,16,0,0,1,5.45-2.25l20-5.5" transform="translate(-59.39 -313.72)"/></g><path class="cls-12" d="M1276.35,809.8a11.49,11.49,0,0,1-1.62,1.67c-1.07,1-2.63,2.52-4.49,4.42s-4,4.24-6.71,6.57-5.72,4.72-8.94,7.22a91.83,91.83,0,0,1-9.5,6.51,46.85,46.85,0,0,1-8.55,4,35.83,35.83,0,0,1-6.18,1.5,11.54,11.54,0,0,1-2.32.14c0-.2,3.3-.43,8.27-2.28a51,51,0,0,0,8.32-4.09,102.11,102.11,0,0,0,9.37-6.51c3.21-2.48,6.27-4.86,8.94-7.13s4.89-4.52,6.82-6.37,3.57-3.27,4.72-4.22A10,10,0,0,1,1276.35,809.8Z" transform="translate(-59.39 -313.72)"/><text class="cls-13" transform="matrix(1.1, -0.28, 0.24, 0.97, 589.29, 462.28)">Ternak <tspan class="cls-14" x="128.84" y="0">p</tspan><tspan class="cls-15" x="146.7" y="0">ak abdul</tspan><tspan class="cls-16" x="295.9" y="0">l</tspan><tspan class="cls-17" x="313.61" y="0">ah</tspan></text><text class="cls-18" transform="matrix(1.1, -0.28, 0.24, 0.97, 660.45, 469.66)">he<tspan class="cls-19" x="14.23" y="0">w</tspan><tspan x="24.1" y="0">an ternak terbaik </tspan><tspan class="cls-20" x="137.15" y="0">y</tspan><tspan x="143.48" y="0">ang pernah a</tspan><tspan class="cls-21" x="222.35" y="0">d</tspan><tspan class="cls-22" x="229.69" y="0">a</tspan></text><path class="cls-5" d="M968.59,628.53,946.67,634l-2.15-8.62,5.12-1.28a1.83,1.83,0,1,0-.88-3.52l-5.12,1.28-.82-3.28a2.08,2.08,0,0,0-4,1l.82,3.28-13.35,3.34-.82-3.28a2.08,2.08,0,0,0-4,1l.82,3.28-13.35,3.34-.82-3.27a2.08,2.08,0,0,0-4,1l.82,3.28-13.36,3.34-.82-3.28a2.08,2.08,0,0,0-4,1l.82,3.28-5.12,1.28a1.83,1.83,0,1,0,.88,3.53l5.12-1.28L890.6,648l-25.45,6.37L855.29,615a2.08,2.08,0,0,0-4,1l9.86,39.41-35.63,8.92-9.66-38.59,30.7-37.14,44.57,18.31,3.71,14.8a2.08,2.08,0,0,0,4-1l-3-11.85,8.51,3.49a2.25,2.25,0,0,0,2.76-.93,1.68,1.68,0,0,0-.87-2.42l-24.44-10-3.92-15.66a2,2,0,0,0-2.44-1.26l-7.93,2-.91.22-12.8,3.21-6.9-2.84a3.59,3.59,0,0,0-.35-.08,2.3,2.3,0,0,0-.28-.06,2.44,2.44,0,0,0-.76,0l-69.13,17.3a2.22,2.22,0,0,0-1.18.74L734.37,652a1.67,1.67,0,0,0,.37,2.55,2.27,2.27,0,0,0,2.87-.49l5.86-7.09,8.92,35.64-22.69,5.68-1.65-6.59,5.47-4.19a1.83,1.83,0,0,0,.73-1.86l-1.57-6.28-1.57-6.27-1.57-6.27-.66-2.62a2.08,2.08,0,0,0-4,1l.38,1.52L722.35,659l-1.73-6.92a2.08,2.08,0,0,0-4,1l1.73,6.92-3.61-.6-.38-1.52a2.08,2.08,0,0,0-4,1l.65,2.62,1.57,6.27,1.57,6.27,1.57,6.27a1.81,1.81,0,0,0,1.52,1.3l6.8,1.12,1.65,6.59-20.93,5.24-1.65-6.6,5.48-4.18a1.82,1.82,0,0,0,.72-1.87l-1.56-6.27-1.57-6.27-1.57-6.27-.66-2.62a2.08,2.08,0,0,0-4,1l.38,1.52-2.91,2.22-1.73-6.92a2.08,2.08,0,0,0-4,1l1.73,6.92-3.61-.59-.38-1.52a2.08,2.08,0,0,0-4,1l.65,2.61,1.57,6.28,1.57,6.27,1.57,6.27a1.81,1.81,0,0,0,1.52,1.3l6.8,1.12,1.65,6.59-12.18,3.05a1.83,1.83,0,1,0,.89,3.52l280-70.07a1.83,1.83,0,1,0-.89-3.52Zm-251.3,41.05,3.61.59.59,2.35-3.61-.59Zm11.11-.28-2.91,2.22-.58-2.35,2.9-2.22Zm-1.34,8.49-.58-2.35,2.9-2.22.59,2.35Zm-.82-17.11.59,2.35-2.91,2.22-.58-2.35Zm-6.91,3.22.59,2.35-3.61-.59-.59-2.35Zm.12,14.3-.59-2.35,3.61.6.59,2.34Zm-27.08-2.38,3.6.59.59,2.35-3.61-.59Zm11.1-.28-2.91,2.22-.59-2.35,2.91-2.22ZM702.13,684l-.59-2.35,2.91-2.22.59,2.35Zm-.82-17.11.59,2.34L699,671.48l-.58-2.34Zm-6.91,3.22.59,2.35-3.61-.59-.58-2.35Zm.12,14.3-.58-2.35,3.6.59.59,2.35Zm246-58.05,2.16,8.62-13.35,3.34-2.16-8.61Zm-17.35,4.35,2.15,8.62L912,642.7l-2.16-8.62Zm-30.71,7.68,13.35-3.34L908,643.7,894.6,647ZM877.09,597l-4.76-2a1.78,1.78,0,0,0,0-.4l-1.91-7.61,3.93-1Zm-10.67-9,1.27,5.1-8.2-3.36ZM778,605.18l62.89-15.74-28.42,34.4L749.6,639.58ZM747,644l61.62-15.42-5.09,6.16a1.67,1.67,0,0,0,.37,2.55,2.27,2.27,0,0,0,2.87-.49l5.86-7.08,8.92,35.63-65.13,16.3Z" transform="translate(-59.39 -313.72)"/><path class="cls-5" d="M759.64,654.72a2,2,0,0,0-1.56,2.26l2.68,10.7a2.08,2.08,0,0,0,4-1L762.09,656A2,2,0,0,0,759.64,654.72Z" transform="translate(-59.39 -313.72)"/><path class="cls-5" d="M771.22,651.82a2,2,0,0,0-1.56,2.26l2.68,10.7a2.08,2.08,0,0,0,4-1l-2.67-10.7A2,2,0,0,0,771.22,651.82Z" transform="translate(-59.39 -313.72)"/><path class="cls-5" d="M782.81,648.92a1.94,1.94,0,0,0-1.56,2.26l2.67,10.7a2.08,2.08,0,0,0,4-1l-2.68-10.7A2,2,0,0,0,782.81,648.92Z" transform="translate(-59.39 -313.72)"/><path class="cls-5" d="M794.39,646a2,2,0,0,0-1.56,2.27L795.51,659a2.08,2.08,0,0,0,4-1l-2.68-10.7A2,2,0,0,0,794.39,646Z" transform="translate(-59.39 -313.72)"/><path class="cls-5" d="M806,643.12a2,2,0,0,0-1.56,2.27l2.68,10.69a2.08,2.08,0,0,0,4-1l-2.67-10.69A2,2,0,0,0,806,643.12Z" transform="translate(-59.39 -313.72)"/><path class="cls-5" d="M695.74,642.51c17.42-34.32,59-63.35,108.65-75.76s99.94-6.4,131.47,15.67a2.18,2.18,0,0,0,1.76.29,2.25,2.25,0,0,0,1.13-.66,1.68,1.68,0,0,0-.25-2.57c-32.48-22.74-84.21-29-135-16.26S710,605.8,692,641.16a1.68,1.68,0,0,0,1,2.38A2.25,2.25,0,0,0,695.74,642.51Z" transform="translate(-59.39 -313.72)"/></svg>