<svg id="Layer_1" data-name="Layer 1" xmlns="http://www.w3.org/2000/svg" viewBox="0 0 1159.16 570.37"><defs><style>.cls-1{fill:#90bae3;}.cls-2{fill:#b2dcf5;}.cls-3{fill:#a5d8bd;}.cls-4{fill:#2fb44a;}.cls-5{fill:#65c296;}.cls-6{fill:#38996a;}.cls-7{fill:#4cbb7d;}.cls-8{fill:#199b48;}.cls-9{fill:#a8d29f;}.cls-10{fill:#82b379;}.cls-11{fill:#ecbc77;}.cls-12{fill:#ffcf84;}.cls-13{fill:#cca384;}.cls-14{fill:#efceb0;}.cls-15{fill:#2b488c;}.cls-16{fill:#fee6d7;}.cls-17{fill:#101010;}.cls-18{fill:#e49a52;}.cls-19{fill:#c08e4b;}.cls-20{fill:#2e3652;}.cls-21{fill:#2e3b65;}.cls-22{fill:#35498c;}.cls-23{fill:#fab17e;}.cls-24{fill:#ee985e;}.cls-25{fill:#c75548;}.cls-26{fill:#f7ed38;}</style></defs><title>intro</title><path class="cls-1" d="M1271.67,967.17c-.06.94-.14,1.88-.22,2.82a199.53,199.53,0,0,1-3.13,21.73.25.25,0,0,0,0,.07c0,.19-.07.37-.11.56a.07.07,0,0,0,0,0l-274.8-.49-713.09-1.26s-94.6-65.36-125.44-168.42c0-.08,0-.17-.07-.26a221.39,221.39,0,0,1-9.05-78.43l.06-.83a234.08,234.08,0,0,1,18-74,293.73,293.73,0,0,1,19.59-38.42q2.68-4.46,5.63-8.7c63.73-92,215.32-113.4,262.26-93.67,63.78,26.82,148.38-45.63,331.24-95.37,83.62-22.74,231.52-3.44,311.71,68l.27.24c51.35,45.88,74.78,113.21,35.44,204.64,0,.09-.08.19-.13.29l-.06.15c-38.3,88.64,39.15,107.51,94.07,153.15.27.22.54.44.81.68a171.5,171.5,0,0,1,15.92,15.05c1.06,1.15,2.1,2.31,3.13,3.5a117.48,117.48,0,0,1,16.89,25.31c.65,1.34,1.29,2.7,1.89,4.08a109.94,109.94,0,0,1,6.64,20.39,125.61,125.61,0,0,1,2.88,23.56A150.79,150.79,0,0,1,1271.67,967.17Z" transform="translate(-129.08 -423.47)"/><path class="cls-2" d="M1130.52,705.57l-.7.09L154.78,822a221.39,221.39,0,0,1-9.05-78.43l.06-.83,948.72-242,.14,0C1146.43,546.58,1170.11,614,1130.52,705.57Z" transform="translate(-129.08 -423.47)"/><path class="cls-2" d="M766.59,530.26,163.81,668.67a293.73,293.73,0,0,1,19.59-38.42q2.68-4.46,5.63-8.7Z" transform="translate(-129.08 -423.47)"/><rect class="cls-3" x="692.59" y="292.73" width="199.16" height="271.78"/><polygon class="cls-4" points="762.91 214.36 901.63 305.12 1035.57 305.12 966.1 214.36 762.91 214.36"/><polygon class="cls-5" points="960.45 214.69 1030.28 305.12 1026.3 305.12 1026.3 481.39 891.75 524.96 891.75 295.65 960.45 214.69"/><path class="cls-6" d="M1071.59,683.21h36.86a0,0,0,0,1,0,0v46.84A14.43,14.43,0,0,1,1094,744.48h-7.52a14.91,14.91,0,0,1-14.91-14.91V683.21a0,0,0,0,1,0,0Z" transform="translate(2050.96 1004.22) rotate(180)"/><path class="cls-7" d="M945.87,786.17h36.85a0,0,0,0,1,0,0V833a14.43,14.43,0,0,1-14.43,14.43h-7.52a14.91,14.91,0,0,1-14.91-14.91V786.17a0,0,0,0,1,0,0Z" transform="translate(1799.52 1210.13) rotate(180)"/><path class="cls-7" d="M868.44,786.17H905.3a0,0,0,0,1,0,0V833a14.43,14.43,0,0,1-14.43,14.43h-7.52a14.91,14.91,0,0,1-14.91-14.91V786.17A0,0,0,0,1,868.44,786.17Z" transform="translate(1644.65 1210.13) rotate(-180)"/><polygon class="cls-4" points="678.03 310.15 894.24 310.15 966.1 214.36 925.64 214.36 751.98 214.38 678.03 310.15"/><polygon class="cls-8" points="678.03 310.15 794.94 310.15 925.64 214.36 751.98 214.38 678.03 310.15"/><polygon class="cls-4" points="975.05 382.09 1006.44 446.71 1101.79 446.71 1052.08 382.33 975.05 382.09"/><path class="cls-5" d="M1176.94,805.8l49.71,64.38h0V985.8c-8.72,6.38-17.88-3.53-26.62-.53-19.06,6.54-35.36-46.15-35.36-46.15s-.54.11-1.6.27h-31.56V870.18h-.21Z" transform="translate(-129.08 -423.47)"/><path class="cls-3" d="M1052.3,870.18v56.26q8.64,2.5,16.69,4.49a344.22,344.22,0,0,0,48.09,8.46h15.79V870.18Z" transform="translate(-129.08 -423.47)"/><polygon class="cls-4" points="914.37 450.53 1000.92 450.53 1052.08 382.32 1026.3 382.33 967.02 382.34 914.37 450.53"/><path class="cls-6" d="M1154.9,913.22V991h4.7c1.5-.22,2.26-.37,2.26-.37a170.69,170.69,0,0,0,49.87-9.27v-67.2a28.89,28.89,0,0,0-28.89-28.88,27.93,27.93,0,0,0-27.94,27.94Z" transform="translate(-129.08 -423.47)"/><path class="cls-6" d="M1181.16,837.18a12.45,12.45,0,1,1-12.45,12.45A12.44,12.44,0,0,1,1181.16,837.18Z" transform="translate(-129.08 -423.47)"/><polygon class="cls-8" points="914.37 450.53 930.79 450.53 1026.3 382.33 967.02 382.34 914.37 450.53"/><path class="cls-9" d="M1271.92,991.33C1162.7,970.85,1030.3,952,921.55,968.5s-150.55,38.69-270-12.43c-26.13-11.19-47.41-12-66.58-12.18l-7.25.12c-64.3,2.7-107.83,45.42-242.85,16.29-20.74-4.48-42.16-4.2-62.33-1.44-12.7-17.74-50.4-66-81.58-61s46,46.78,75.27,61.9q-5.22.86-10.31,1.91c-17.72-8.26-51-21.62-70-15.76-18.56,5.74,28,13.94,58.27,18.43a321,321,0,0,0-70.51,26.9Z" transform="translate(-129.08 -423.47)"/><path class="cls-10" d="M370.54,978.48,360.16,978c-2.05-.09-4.11-.2-6.14-.31l-3.64-.22c-4.79-.31-9.46-.7-13.87-1.22-34.54-4.13-83.32,15.05-83.32,15.05H423.28C422.07,980.68,397.2,979.57,370.54,978.48Z" transform="translate(-129.08 -423.47)"/><path class="cls-11" d="M1039.49,919.71c0-11.56,17.54-23.69,17.54-23.69-3-.24-10.74,3.66-10.74,3.66,2.07-1.83,11.7-4.85,11.7-4.85,3.1-2,12.8-3.18,13.36-3.34s-9.94-1.44-9.94-1.44l12.61.85s11.33-1.4,19.61-2.24,30.95,2.59,30.95,2.59c-1-.88-9.39-2.59-9.39-2.59,10.61,1.08,26.21,4,26.23,4,9,.61,15.06,1.13,15.06,1.13l5.49,98.6s-91.18-.48-104.06,0-19.58-18.14-22.44-40.1A70.46,70.46,0,0,1,1039.49,919.71Z" transform="translate(-129.08 -423.47)"/><path class="cls-12" d="M1145.93,893.19s29.36-2.23,48,21.4a29.22,29.22,0,0,1,1.92,2.74,22.55,22.55,0,0,0-2.51-6.75c3.82,3.18,5.15,11.85,5.15,11.85h0a48.9,48.9,0,0,1,3.3,12.81c2.31,2.84,4.28,5.1,4.28,5.1l-4.14-3.79a73.48,73.48,0,0,1-2.13,25.56c1.49-.27,3.62-.42,5.07.42a8.27,8.27,0,0,0-5.29.4,71.28,71.28,0,0,1-2.54,7.6,100.41,100.41,0,0,1-3.25,11.88,53.59,53.59,0,0,0,1.31-7.49c-5.23,10.63-12.95,18.14-21.94,18.22-24.34.21-54.33-3.53-60.81-35.31S1119.44,894,1145.93,893.19Z" transform="translate(-129.08 -423.47)"/><path class="cls-12" d="M1193.77,982.41a11.6,11.6,0,0,1-.45,1.37C1193.28,983.87,1193.47,983.34,1193.77,982.41Z" transform="translate(-129.08 -423.47)"/><path class="cls-11" d="M1157.55,992.31c6.75,0,14.88-1.14,21.81-5.39,7.5-4.59,12.4-12,14.56-22,3.68-17,1.87-31-5.37-41.52-6.78-9.84-18.21-16.25-33.08-18.54-10-1.54-18.71,1.71-25.11,9.38-9.25,11.09-11.91,29.82-6.46,45.56,3.84,11.11,14.11,18,27.47,18.37h1.14c13.46,0,25.59-6.88,29.76-17,4.24-10.3,4-20.38-.62-28.38s-13.63-13.41-25.09-14.88c-10.37-1.34-16,3.49-18.83,7.78-5.54,8.27-5.52,21.7-1.81,28.18,3.57,6.25,13.45,11.07,22,10.77,6.19-.22,10.92-3.09,13.31-8.07,3.08-6.41,2.88-13-.55-18.16-2.76-4.14-7.22-6.66-11.36-6.43-4.75.25-6.77,4.22-7.06,7.54-.26,2.93.74,6.18,3.14,6.74,4.46,1,6-1.4,6.11-1.5s2.42-4-.59-4.55c-3.43-.66-2.53,2-2.53,2s.85,3.68-2.71,2.84c-1.47-.34-2.44-2.73-2.2-5.43.26-3,2-6.21,5.91-6.43,3.72-.21,7.74,2.11,10.27,5.89,3.18,4.76,3.35,10.94.46,17-2.8,5.83-8.2,7.23-12.25,7.37-8.17.28-17.56-4.26-20.93-10.15-3.12-5.46-4-18.33,1.77-26.89,3.83-5.73,9.94-8.24,17.65-7.24,11.08,1.42,19.66,6.49,24.18,14.27s4.65,17.36.55,27.31-16.32,16.6-29.72,16.21c-12.83-.37-22.68-6.93-26.35-17.54-5.31-15.35-2.75-33.6,6.24-44.37,4.26-5.11,11.88-10.81,24-8.95,14.52,2.23,25.67,8.46,32.24,18,7,10.24,8.79,23.89,5.19,40.57-2.09,9.66-6.8,16.8-14,21.2-14.55,8.91-37.49,3.52-37.7,3.46l2.6,1.41A61,61,0,0,0,1157.55,992.31Z" transform="translate(-129.08 -423.47)"/><path class="cls-11" d="M954.93,935.49h0c0-9.07,13.77-18.59,13.77-18.59-2.38-.19-8.43,2.87-8.43,2.87,1.62-1.44,9.18-3.81,9.18-3.81,2.43-1.56,10-2.5,10.49-2.63s-7.81-1.12-7.81-1.12l9.9.66s8.9-1.1,15.4-1.75,24.3,2,24.3,2c-.81-.69-7.37-2-7.37-2,8.33.84,20.57,3.12,20.59,3.12,7.11.48,11.83.89,11.83.89l4.31,77.41s-71.59-.38-81.7,0S954,978.29,951.77,961.06A55.41,55.41,0,0,1,954.93,935.49Z" transform="translate(-129.08 -423.47)"/><path class="cls-12" d="M1038.5,914.67s23-1.75,37.66,16.8a25.41,25.41,0,0,1,1.51,2.17,17.65,17.65,0,0,0-2-5.31c3,2.49,4,9.3,4,9.3h0a38.25,38.25,0,0,1,2.6,10c1.82,2.23,3.36,4,3.36,4l-3.25-3a57.79,57.79,0,0,1-1.68,20.07,6.3,6.3,0,0,1,4,.33,6.46,6.46,0,0,0-4.16.32,56.24,56.24,0,0,1-2,6,78.41,78.41,0,0,1-2.57,9.35,41.22,41.22,0,0,0,1-5.91c-4.1,8.35-10.17,14.25-17.22,14.31-19.12.17-42.66-2.77-47.75-27.72S1017.7,915.3,1038.5,914.67Z" transform="translate(-129.08 -423.47)"/><path class="cls-12" d="M1076,984.74a10,10,0,0,1-.34,1C1075.67,985.86,1075.81,985.46,1076,984.74Z" transform="translate(-129.08 -423.47)"/><path class="cls-11" d="M1047.61,992.49c5.3,0,11.68-.9,17.13-4.23,5.88-3.6,9.73-9.41,11.43-17.27,2.88-13.36,1.47-24.33-4.22-32.6-5.32-7.72-14.3-12.75-26-14.54a20.42,20.42,0,0,0-19.71,7.36c-7.26,8.7-9.35,23.41-5.08,35.76,3,8.73,11.09,14.12,21.57,14.42l.9,0c10.56,0,20.09-5.4,23.36-13.34,3.33-8.09,3.16-16-.49-22.29s-10.7-10.52-19.69-11.68c-8.15-1.05-12.54,2.75-14.79,6.11-4.34,6.49-4.33,17-1.42,22.13,2.8,4.9,10.56,8.69,17.3,8.45,4.87-.17,8.58-2.42,10.46-6.34,2.41-5,2.25-10.23-.44-14.26-2.16-3.24-5.66-5.22-8.91-5-3.73.2-5.32,3.31-5.55,5.92-.2,2.3.58,4.85,2.47,5.29,3.5.82,4.75-1.1,4.8-1.18s1.89-3.12-.47-3.57c-2.69-.52-2,1.58-2,1.58s.66,2.89-2.14,2.23c-1.15-.27-1.91-2.14-1.72-4.27.2-2.32,1.53-4.87,4.64-5,2.92-.17,6.08,1.65,8.06,4.62,2.5,3.74,2.63,8.59.37,13.31s-6.45,5.67-9.62,5.79c-6.42.22-13.79-3.35-16.43-8-2.45-4.29-3.11-14.39,1.38-21.11,3-4.5,7.8-6.47,13.87-5.69,8.69,1.11,15.43,5.09,19,11.21s3.64,13.62.43,21.43-12.82,13-23.34,12.73c-10.07-.29-17.8-5.44-20.69-13.77-4.16-12-2.15-26.38,4.91-34.84a19.52,19.52,0,0,1,18.83-7c11.4,1.75,20.15,6.64,25.31,14.14,5.54,8,6.9,18.75,4.07,31.85-1.63,7.59-5.33,13.19-11,16.65-11.42,7-29.43,2.76-29.59,2.71l2,1.11A48.25,48.25,0,0,0,1047.61,992.49Z" transform="translate(-129.08 -423.47)"/><path class="cls-13" d="M788.69,808.68s33.6,129.63,30.59,139.88-19.89,45.06-19.89,45.06h16.23a12.23,12.23,0,0,0,6.3-11.25c-.27-8,22.5-39.37,22.5-39.37s-8.93-49.77,0-69.38C882.88,789.2,818.46,790,788.69,808.68Z" transform="translate(-129.08 -423.47)"/><path class="cls-13" d="M616.12,853.54s9.64,69.64,10.18,73.92,5.09,9.64,4.82,16.61-2.68,30.53-10.18,36.43-8.3,13.12-8.3,13.12H633s3.49-7,3-11.79,5.63-9.91,5.89-19.82,0-28.39,2.68-34.82,1.88-50.62,10.72-60.53S616.12,853.54,616.12,853.54Z" transform="translate(-129.08 -423.47)"/><path class="cls-14" d="M834.5,863.44a80.81,80.81,0,0,0,3.42-24c0-3-.11-6-.33-9.19,0,0,26.57-48.27,7.64-66.76,0,0-.11-2.32-6.2-4.2-5.54-1.77-16.06-3-35.87-1.89-.56,0-1.11.12-1.66.12-7.42.44-16.28.55-26,.22-47.38-1.33-114.47-10-125.54-8.31-2,.34-4.1.67-6.43,1.11a151.38,151.38,0,0,1-18.15,2.22c-5.43.33-18.49-5.87-29.45-2.44a192.18,192.18,0,0,0-35.32,22.14,263.89,263.89,0,0,0-43.17,43,286.21,286.21,0,0,0-26.68,39h0c-3,.31-6.47,2.78-10,3.24-4.83.63-5.75,3-5.75,3a8.12,8.12,0,0,0,3.18,3.78,4.54,4.54,0,0,1-.51.09c-4.82.62-5.74,3-5.74,3,2,4.69,6.9,5.55,10.46,5.56h0v0c-1.11,4.66-2.32,11.52-.22,14.73,3.32,5-.66,23.47-.33,29.67s-2.21,10.85-2.1,12.4,4.2,7.42,9.18,7.2,11-.89,13.95-7.09,4.87-10.19,7.86-10.74,19.49-16.71,23-23.8c1.88-3.54,7.42-11.07,27.35-15.17a154.59,154.59,0,0,1,24-2.65c3.09,6.36,7.07,11.55,11.78,12.86,2.4,17.43,4.81,34.88,5.06,37,.54,4.29,5.09,9.64,4.83,16.61s-2.68,30.53-10.18,36.43-8.31,13.12-8.31,13.12H608.6s3.48-7,2.95-11.79,5.62-9.91,5.89-19.82,0-28.39,2.68-34.82c1.72-4.13,2-23.91,4.34-40.13,10.78-2.2,21.44-4.11,27.14-1.79,10.85,4.43,63.1,18.05,100.41,3.22,0,0,5.2-.23,8.08,1.77.91.68,10.25,3.77,22.15,4.52,5.88,24.67,11,49,9.6,53.78-3,10.24-19.88,45.06-19.88,45.06h16.23a12.25,12.25,0,0,0,6.3-11.25c-.27-8,22.5-39.37,22.5-39.37s1.43-44.19,11-66.2a45.15,45.15,0,0,0,4.29-7.52A10.31,10.31,0,0,0,834.5,863.44Z" transform="translate(-129.08 -423.47)"/><path class="cls-15" d="M851.11,925.48s11.81-12.72,4.47-15.59-4.47,5.74-4.47,9.1Z" transform="translate(-129.08 -423.47)"/><path class="cls-16" d="M839,759.29c-13.73,6.75-28.9,13-37.87,13.17-19.59.33-67.2-11-86.57-12.18s-97.87,16.94-116.36,11.07a3,3,0,0,0-1.43-.22c-4.1-.33-10.3,2.55-17.94,7.2-4.32,2.77-9.08,6.09-14.06,9.85-32.22,24.36-74.06,66.21-74.06,66.21a286.21,286.21,0,0,1,26.68-39,263.89,263.89,0,0,1,43.17-43,192.18,192.18,0,0,1,35.32-22.14c11-3.43,24,2.77,29.45,2.44a151.38,151.38,0,0,0,18.15-2.22c2.33-.44,4.43-.77,6.43-1.11,11.07-1.66,78.16,7,125.54,8.31,9.74.33,18.6.22,26-.22.55,0,1.1-.12,1.66-.12C823,756.3,833.49,757.52,839,759.29Z" transform="translate(-129.08 -423.47)"/><path class="cls-17" d="M754.53,782.34c-2.87-12-31.61-2.88-58.91,8.14s-39.27,1.43-61.14,7.66S613,834.67,612.26,836.45c-7.69,19.64,50.32,8.62,71.58,18s73.08,4,70.69-11.33S757.4,794.31,754.53,782.34Z" transform="translate(-129.08 -423.47)"/><path class="cls-17" d="M668.8,771.32c23.47-1,30.18-13.41,58.43-8.14,23.23,4.33,39.67,1.54,48.23-5.45C728.13,756.38,661,747.81,650,749.48c-2,.3-4.17.67-6.44,1C644.17,754.66,648.1,772.16,668.8,771.32Z" transform="translate(-129.08 -423.47)"/><path class="cls-17" d="M560.59,772.46a263.89,263.89,0,0,0-43.17,43,286.21,286.21,0,0,0-26.68,39c-3,.33-6.54,2.76-10.08,3.21-4.76.66-5.76,3-5.76,3a8.68,8.68,0,0,0,3.22,3.87h-.56c-4.76.66-5.76,3.1-5.76,3.1,2,4.65,7,5.53,10.52,5.53-1.11,4.66-2.32,11.52-.22,14.73,3.32,5-.66,23.47-.33,29.67s-2.21,10.85-2.1,12.4,4.2,7.42,9.18,7.2,11-.89,13.95-7.09,4.87-10.19,7.86-10.74,19.49-16.71,23-23.8c1.88-3.54,7.42-11.07,27.35-15.17-2.88-18.38-14.73-42.29-2.22-62.22a55.39,55.39,0,0,0,3.66-7.19,50.18,50.18,0,0,0,1.88-6.65,48.86,48.86,0,0,0,.44-16.05A66,66,0,0,0,560.59,772.46Z" transform="translate(-129.08 -423.47)"/><path class="cls-17" d="M861.81,797.18a55,55,0,0,0-16.56-33.64s-.4-8.6-42.09-6.13c-5,5-9,11.75-8,20.14,2.46,20.59-31.12,24.12-27.43,49.1,3.2,21.69,45.84,30.79,70.15,12.76,0-2.91-.07-6-.28-9.18a151,151,0,0,0,8.68-19.66L852,913.12l5.47.3S864.2,818.73,861.81,797.18Z" transform="translate(-129.08 -423.47)"/><path class="cls-18" d="M530.83,993.62H396l-8.6-61.38h145.3a5.82,5.82,0,0,1,5.77,6.62Z" transform="translate(-129.08 -423.47)"/><path class="cls-19" d="M513.19,993.62H378.41l-7.68-54.76a5.82,5.82,0,0,1,5.77-6.62H515.11a5.81,5.81,0,0,1,5.76,6.62Z" transform="translate(-129.08 -423.47)"/><path class="cls-19" d="M975.49,993.62,975.19,868a5.92,5.92,0,0,0-5.92-5.87l-15.17.09a5.91,5.91,0,0,0-5.87,5.93l.3,125.52Z" transform="translate(-129.08 -423.47)"/><path class="cls-19" d="M338.84,993.62,338.54,868a5.92,5.92,0,0,0-5.92-5.87l-15.18.09a5.91,5.91,0,0,0-5.86,5.93l.3,125.52Z" transform="translate(-129.08 -423.47)"/><path class="cls-12" d="M308,909.38l671.24-1.14a5.92,5.92,0,0,0,5.87-5.92l-.1-15.17a5.9,5.9,0,0,0-5.92-5.87l-671.24,1.14a5.9,5.9,0,0,0-5.86,5.92l.09,15.18A5.9,5.9,0,0,0,308,909.38Z" transform="translate(-129.08 -423.47)"/><path class="cls-12" d="M308,969.61l671.24-1.14a5.92,5.92,0,0,0,5.87-5.93l-.1-15.17a5.92,5.92,0,0,0-5.92-5.87l-671.24,1.14a5.91,5.91,0,0,0-5.86,5.92l.09,15.18A5.92,5.92,0,0,0,308,969.61Z" transform="translate(-129.08 -423.47)"/><path class="cls-19" d="M328.08,888.65a2.87,2.87,0,1,1-2.87-2.87A2.87,2.87,0,0,1,328.08,888.65Z" transform="translate(-129.08 -423.47)"/><path class="cls-19" d="M328.08,901.55a2.87,2.87,0,1,1-2.87-2.87A2.88,2.88,0,0,1,328.08,901.55Z" transform="translate(-129.08 -423.47)"/><path class="cls-19" d="M328.08,948.44a2.87,2.87,0,1,1-2.87-2.87A2.88,2.88,0,0,1,328.08,948.44Z" transform="translate(-129.08 -423.47)"/><path class="cls-19" d="M328.08,961.34a2.87,2.87,0,1,1-2.87-2.86A2.87,2.87,0,0,1,328.08,961.34Z" transform="translate(-129.08 -423.47)"/><path class="cls-19" d="M964.3,888.65a2.87,2.87,0,1,1-2.87-2.87A2.87,2.87,0,0,1,964.3,888.65Z" transform="translate(-129.08 -423.47)"/><path class="cls-19" d="M964.3,901.55a2.87,2.87,0,1,1-2.87-2.87A2.88,2.88,0,0,1,964.3,901.55Z" transform="translate(-129.08 -423.47)"/><path class="cls-19" d="M964.3,948.44a2.87,2.87,0,1,1-2.87-2.87A2.88,2.88,0,0,1,964.3,948.44Z" transform="translate(-129.08 -423.47)"/><path class="cls-19" d="M964.3,961.34a2.87,2.87,0,1,1-2.87-2.86A2.87,2.87,0,0,1,964.3,961.34Z" transform="translate(-129.08 -423.47)"/><rect class="cls-20" y="567.43" width="1159.16" height="2.95" rx="1.17"/><g id="man"><path class="cls-21" d="M229.53,965.4s-5.48,5.08-4.41,8.69,6,6,6.68,10.42,3.35,6.82,5.75,6.82H249s1.77-3.1-2.5-4-5.89-6.12-5.63-10.93a85.75,85.75,0,0,0-.4-11.23L231.4,963Z" transform="translate(-129.08 -423.47)"/><path class="cls-21" d="M297.83,990.77a17.06,17.06,0,0,0,4.24.55H329c-.1-.83-.77-3.48-4.92-4.15-4.95-.81-13.63-3.75-15.11-10.3s-12.16,2-12.16,2S295.43,989.57,297.83,990.77Z" transform="translate(-129.08 -423.47)"/><path class="cls-22" d="M322.76,815.6s-1.63,20.26-3.54,44.62c-2.59,33.08-5.71,73.72-6,81.42-.53,13.37-2.67,34.75-2.67,34.75s-5.08,5.08-15.24,2.94c0,0-9.05-30.53-11.64-62.83l-.12-1.59c-2.41-32.88-6.15-102.12-6.15-102.12Z" transform="translate(-129.08 -423.47)"/><path class="cls-21" d="M322.76,815.6s-1.63,20.26-3.54,44.62L283.65,916.5l-.12-1.59c-2.41-32.88-6.15-102.12-6.15-102.12Z" transform="translate(-129.08 -423.47)"/><path class="cls-22" d="M315.34,818s-29.27,73.37-48.52,107.86S241.56,970,241.56,970s-11-4.41-12-7.41c0,0,7.36-66.58,20.25-82.8,7.28-9.17,15.84-36.69,16.24-46.32s2.61-28.67,2.61-28.67Z" transform="translate(-129.08 -423.47)"/><path class="cls-23" d="M372.78,807.85s10.33,5,11.72,6.23,4.83,7.52,4.56,8-.78.62-1.71,0-3.56-3.35-3.66-2.85,7,8.87,5.75,10.64-8.38,1.24-12.45-1.65-8.13-13.53-8.74-14.11C363.06,809.14,372.78,807.85,372.78,807.85Z" transform="translate(-129.08 -423.47)"/><path class="cls-8" d="M373.25,813.16c2.87-2.49,2.94-3.12,2.94-3.12s-18.31-31.68-19.9-34.72-11.4-50.62-11.4-50.62L311,714.86s23.9,61.82,28.08,69.45c6.9,12.63,29.42,31.21,29.42,31.21A10.61,10.61,0,0,0,373.25,813.16Z" transform="translate(-129.08 -423.47)"/><path class="cls-23" d="M328.24,702.49s11.94,21,23.61,23.75c0,0-.48-7-3.33-11.88q1.75-2.07,3.07-3.77a69.91,69.91,0,0,0,4.34-6.07l-4-10.65-2.69-7.23a34.84,34.84,0,0,1-4.2,6.06C337.43,701.49,328.24,702.49,328.24,702.49Z" transform="translate(-129.08 -423.47)"/><path class="cls-24" d="M345.08,692.7s-1.43,10.53,6.51,17.89a69.91,69.91,0,0,0,4.34-6.07l-4-10.65A22.73,22.73,0,0,0,345.08,692.7Z" transform="translate(-129.08 -423.47)"/><path class="cls-23" d="M359.08,706.08s-17.85-7-13.34-18,5.23-19.38,16.81-15.41,12.07,9.09,11.46,13.14S363.83,707.6,359.08,706.08Z" transform="translate(-129.08 -423.47)"/><path class="cls-4" d="M266.9,810.32c7.19,10.35,61,24.17,60.37,17a78.15,78.15,0,0,1,0-14.12c.14-1.54.33-3.17.57-4.88a112.76,112.76,0,0,1,11.87-35.53c.54-1,1.1-2.11,1.69-3.18a108.94,108.94,0,0,0,7.46-16.77c3.73-10.78,5.24-21.09,3.35-27.83a.32.32,0,0,0,0-.09c-11.24-5.2-15.6-25.37-15.6-25.37s-38.38,6.89-59.89,58c0,0-2.06,5.62-4.42,13.24-2.87,9.25-6.17,21.44-6.74,30.14C265.26,805.11,265.61,808.45,266.9,810.32Z" transform="translate(-129.08 -423.47)"/><path class="cls-15" d="M343.17,667.55c-.12-.24-.48-.51-1.37-.78a3.66,3.66,0,0,1,1.8-.06c.5-1.23,1.72-3.31,4-3.32a2.8,2.8,0,0,0-1.79,1.65c3.13-2,8.93-2.56,23.41,2.26,19.09,6.36,9.55,17.44,6.66,18.33s-8.22-4.81-13-5.59-7.38,5.89-9.21,6.45-.78-1-2.7-2.49-3,2.06-3,4.57-3.72,5-3.72,5a35.08,35.08,0,0,0-2.15-4.14c-2.19-4-1.59-18.57.5-21.19Z" transform="translate(-129.08 -423.47)"/><path class="cls-8" d="M340.72,670.18s2.21-17.75,15.06-16.77,18.29,7.62,19.12,17.48Z" transform="translate(-129.08 -423.47)"/><path class="cls-4" d="M341.13,668l1.45-.29.56-.1a77.84,77.84,0,0,1,15.77-1,82,82,0,0,1,11.59,1.17c.61.11,1.2.21,1.78.34.8.16,1.58.33,2.33.52,9,2.21,15,5.91,14.91,9.94-.13,4.25-6.1,7.71-16.08,9.22a14.38,14.38,0,0,0,.61-2.25c1.59-.95,3.68-4.32,3.71-5.55.05-1.42-1.11-2.78-3.12-4-3.47-2-9.49-3.45-16.37-3.68-7.4-.23-13.89,1-17.33,3,0,0-.16,6.7-.07,8.23.07.91.17,1.78.3,2.58-8.3-2.24-13.7-5.78-13.58-9.61S333.06,669.73,341.13,668Z" transform="translate(-129.08 -423.47)"/><path class="cls-8" d="M265.54,801c46.31-14,53.68-69.19,53.68-69.19s-26.37,20.15-46.94,39.05C269.41,780.09,266.11,792.28,265.54,801Z" transform="translate(-129.08 -423.47)"/><path class="cls-25" d="M212.4,875.16l4.65-43.33,6.7.72A20.95,20.95,0,0,1,265.32,837l6.7.72-4.65,43.33a8.76,8.76,0,0,1-9.61,7.75l-37.62-4A8.75,8.75,0,0,1,212.4,875.16Zm34-58.22a19.3,19.3,0,0,0-21,15.79l38.25,4.1A19.31,19.31,0,0,0,246.45,816.94Z" transform="translate(-129.08 -423.47)"/><path class="cls-23" d="M252.84,802.79s1,8.76.8,10.19-1.93,5.69-2.34,5.71-1.67.07-1.64-.8.6-1.7.24-1.55-.48,3.45-2.15,3.36-6.58-1.93-6.38-5.78,5.43-10.87,5.56-11.51C248,797,252.84,802.79,252.84,802.79Z" transform="translate(-129.08 -423.47)"/><path class="cls-4" d="M250.07,804.27c3.67,1.68,5,0,5,0s21.4-35.74,23.65-38.62,41.77-19.83,41.77-19.83,16.08-6.14,16.71-15.9c.56-8.47-4.26-13.68-9.53-16.82a17.8,17.8,0,0,0-20,1.29c-13,10.07-38.65,30.31-42.78,35.8-9.21,12.22-19.41,50.53-19.41,50.53A12.71,12.71,0,0,0,250.07,804.27Z" transform="translate(-129.08 -423.47)"/></g><path class="cls-10" d="M385.83,859s18.82-8.66,36.88-4.65C422.71,854.39,400.78,844.62,385.83,859Z" transform="translate(-129.08 -423.47)"/><path class="cls-10" d="M383.72,863.07s20.58,2.38,33.93,15.19C417.65,878.26,404,858.52,383.72,863.07Z" transform="translate(-129.08 -423.47)"/><path class="cls-10" d="M382.56,841.28s20.58,2.39,33.93,15.19C416.49,856.47,402.82,836.73,382.56,841.28Z" transform="translate(-129.08 -423.47)"/><path class="cls-10" d="M413.15,868.62s7.77-7.51,17.35-8.66C430.5,860,418,858.94,413.15,868.62Z" transform="translate(-129.08 -423.47)"/><path class="cls-10" d="M407.82,924.84s7.77-7.51,17.35-8.66C425.17,916.18,412.69,915.17,407.82,924.84Z" transform="translate(-129.08 -423.47)"/><path class="cls-10" d="M365.4,834.69s7.77-7.51,17.36-8.66C382.76,826,370.27,825,365.4,834.69Z" transform="translate(-129.08 -423.47)"/><path class="cls-10" d="M373.09,870.94s10.77.9,18,7.36C391,878.3,383.58,868.23,373.09,870.94Z" transform="translate(-129.08 -423.47)"/><path class="cls-10" d="M373.29,846.79s5.81.49,9.68,4C383,850.76,379,845.33,373.29,846.79Z" transform="translate(-129.08 -423.47)"/><path class="cls-10" d="M398.24,833.89s5.8.48,9.67,4C407.91,837.85,403.89,832.42,398.24,833.89Z" transform="translate(-129.08 -423.47)"/><path class="cls-10" d="M401.3,879.7s3.46-4.69,8.46-6.15C409.76,873.55,403,874.12,401.3,879.7Z" transform="translate(-129.08 -423.47)"/><path class="cls-10" d="M434,922.75s5.66,1.38,8.95,5.42C442.94,928.17,439.81,922.18,434,922.75Z" transform="translate(-129.08 -423.47)"/><path class="cls-10" d="M427,875.56s5.66,1.39,8.94,5.43C435.89,881,432.76,875,427,875.56Z" transform="translate(-129.08 -423.47)"/><path class="cls-10" d="M399.32,914.82s10.77.9,17.95,7.35C417.27,922.17,409.81,912.11,399.32,914.82Z" transform="translate(-129.08 -423.47)"/><path class="cls-10" d="M427.53,923.58s3.46-4.69,8.46-6.16C436,917.42,429.26,918,427.53,923.58Z" transform="translate(-129.08 -423.47)"/><circle class="cls-26" cx="882.21" cy="496.26" r="24.59" transform="translate(121.96 864.11) rotate(-80.78)"/></svg>