<svg id="Layer_1" data-name="Layer 1" xmlns="http://www.w3.org/2000/svg" viewBox="0 0 888.17 492.07"><defs><style>.cls-1{font-size:127.17px;}.cls-1,.cls-4,.cls-9{fill:#14753c;}.cls-1,.cls-4{font-family:BebasNeue-Regular, Bebas Neue;}.cls-2{letter-spacing:-0.03em;}.cls-3{letter-spacing:0em;}.cls-4{font-size:45.42px;}.cls-5{letter-spacing:-0.01em;}.cls-6{letter-spacing:0em;}.cls-7{letter-spacing:-0.05em;}.cls-8{letter-spacing:0em;}</style></defs><title>logoTernak</title><text class="cls-1" transform="translate(0 412.92)">Ternak <tspan class="cls-2" x="322" y="0">P</tspan><tspan x="366.64" y="0">ak Abdul</tspan><tspan class="cls-3" x="739.5" y="0">l</tspan><tspan x="783.76" y="0">ah</tspan></text><text class="cls-4" transform="translate(147.95 482.99)">He<tspan class="cls-5" x="35.56" y="0">w</tspan><tspan class="cls-6" x="60.23" y="0">an Ternak Terbaik </tspan><tspan class="cls-7" x="342.77" y="0">y</tspan><tspan x="358.58" y="0">ang Pernah A</tspan><tspan class="cls-8" x="555.69" y="0">d</tspan><tspan x="574.04" y="0">a</tspan></text><path class="cls-9" d="M1026.31,719.53H976.59V697.32h11.62a4.54,4.54,0,1,0,0-9.08H976.59V679.8a4.54,4.54,0,0,0-9.08,0v8.44H937.22V679.8a4.54,4.54,0,0,0-9.08,0v8.44H897.85V679.8a4.54,4.54,0,0,0-9.08,0v8.44h-30.3V679.8a4.54,4.54,0,0,0-9.08,0v8.44H837.78a4.54,4.54,0,1,0,0,9.08h11.61v22.21H791.68V618a4.54,4.54,0,0,0-9.08,0V719.53H701.77V620.12l85.37-71.44,85.36,71.44v38.15a4.54,4.54,0,1,0,9.08,0V627.72l16.29,13.63a4.54,4.54,0,1,0,5.83-7l-46.81-39.17V554.87a4.54,4.54,0,0,0-4.54-4.54H803.26l-13.21-11.05a3.73,3.73,0,0,0-.7-.4,3.57,3.57,0,0,0-.56-.33,4.54,4.54,0,0,0-1.65-.33H630.33a4.47,4.47,0,0,0-2.91,1.06l-113.65,95.1a4.54,4.54,0,1,0,5.83,7l16.28-13.63v91.81H484.41v-17l13.93-6.83a4.52,4.52,0,0,0,2.54-4.08V636.42a4.54,4.54,0,0,0-9.08,0v3.91L484.41,644V626.12a4.54,4.54,0,0,0-9.08,0V644l-7.39-3.62v-3.91a4.54,4.54,0,0,0-9.08,0v55.21a4.54,4.54,0,0,0,2.54,4.08l13.93,6.83v17H427.86v-17l13.92-6.83a4.53,4.53,0,0,0,2.55-4.08V636.42a4.54,4.54,0,1,0-9.08,0v3.91L427.86,644V626.12a4.54,4.54,0,0,0-9.08,0V644l-7.38-3.62v-3.91a4.55,4.55,0,0,0-9.09,0v55.21a4.54,4.54,0,0,0,2.54,4.08l13.93,6.83v17H391.15a4.54,4.54,0,1,0,0,9.08h635.16a4.54,4.54,0,0,0,0-9.08ZM467.94,666.6l7.39,3.63v6l-7.39-3.62Zm23.86,6-7.39,3.62v-6l7.39-3.63Zm-7.39,19.78v-6l7.39-3.62v6Zm7.39-42v6l-7.39,3.62v-6Zm-16.47,3.62v6l-7.39-3.62v-6Zm-7.39,34.73v-6l7.39,3.62v6ZM411.4,666.6l7.38,3.63v6l-7.38-3.62Zm23.85,6-7.39,3.62v-6l7.39-3.63Zm-7.39,19.78v-6l7.39-3.62v6Zm7.39-42v6l-7.39,3.62v-6Zm-16.47,3.62v6l-7.38-3.62v-6ZM411.4,688.8v-6l7.38,3.62v6Zm556.11,8.52v22.21H937.22V697.32Zm-39.37,0v22.21H897.85V697.32Zm-69.67,0h30.3v22.21h-30.3ZM847.81,587.61l-9.1-7.62a4.48,4.48,0,0,0,.19-1v-19.6h8.91Zm-18-28.2v13.15l-15.7-13.15ZM632,547.3H774.64l-79,66.16H552.93Zm-87,75.24H684.74l-14.16,11.84a4.54,4.54,0,1,0,5.83,7l16.28-13.63v91.81H545Z" transform="translate(-264.64 -461.05)"/><path class="cls-9" d="M566.28,656.26a4.54,4.54,0,0,0-4.54,4.54v27.55a4.54,4.54,0,1,0,9.08,0V660.8A4.54,4.54,0,0,0,566.28,656.26Z" transform="translate(-264.64 -461.05)"/><path class="cls-9" d="M592.56,656.26A4.55,4.55,0,0,0,588,660.8v27.55a4.55,4.55,0,0,0,9.09,0V660.8A4.54,4.54,0,0,0,592.56,656.26Z" transform="translate(-264.64 -461.05)"/><path class="cls-9" d="M618.83,656.26a4.54,4.54,0,0,0-4.54,4.54v27.55a4.54,4.54,0,1,0,9.08,0V660.8A4.54,4.54,0,0,0,618.83,656.26Z" transform="translate(-264.64 -461.05)"/><path class="cls-9" d="M645.1,656.26a4.54,4.54,0,0,0-4.54,4.54v27.55a4.54,4.54,0,1,0,9.08,0V660.8A4.54,4.54,0,0,0,645.1,656.26Z" transform="translate(-264.64 -461.05)"/><path class="cls-9" d="M671.37,656.26a4.54,4.54,0,0,0-4.54,4.54v27.55a4.55,4.55,0,0,0,9.09,0V660.8A4.55,4.55,0,0,0,671.37,656.26Z" transform="translate(-264.64 -461.05)"/><path class="cls-9" d="M436.4,587.88c55.51-72.63,159.89-117.75,272.39-117.75s216.76,45.12,272.27,117.75a4.54,4.54,0,0,0,7.22-5.51C931.09,507.53,824,461.05,708.79,461.05S486.37,507.53,429.18,582.37a4.54,4.54,0,0,0,7.22,5.51Z" transform="translate(-264.64 -461.05)"/></svg>