<svg id="Layer_1" data-name="Layer 1" xmlns="http://www.w3.org/2000/svg" viewBox="0 0 1112.01 542.02"><defs><style>.cls-1{fill:#6acbdd;}.cls-2{fill:#4cc2c3;}.cls-3{fill:#d5eef3;}.cls-4{fill:#7eaa40;}.cls-12,.cls-13,.cls-18,.cls-5{fill:#32a58f;}.cls-6{fill:#da7343;}.cls-7{fill:#f26624;}.cls-8{fill:#d35527;}.cls-9{fill:#fedb2e;}.cls-10{fill:#8fc640;}.cls-11,.cls-12{opacity:0.6;}.cls-13{opacity:0.3;}.cls-14,.cls-16,.cls-17{fill:#fff;}.cls-15{fill:#ddd;}.cls-16{opacity:0.4;}.cls-17{opacity:0.5;}.cls-18{opacity:0.2;}.cls-19{fill:#91b458;}.cls-20{fill:#424143;}.cls-21{fill:#f9b1a3;}.cls-22{fill:#444446;}.cls-23{fill:#f58c73;}.cls-24{fill:#33b44a;}.cls-25{fill:#199b48;}.cls-26{fill:#fabdb0;}.cls-27{fill:#59595b;}.cls-28{fill:#0d0d0d;}.cls-29{fill:#36b4a0;}</style></defs><title>otherproduct</title><path class="cls-1" d="M1197.1,973.2,956,972.74l-223.12-.43-82-.16-320.42-.61s-83-62.17-110-160.18a226.49,226.49,0,0,1-7.26-83.89c5.16-50.56,29.1-109.81,71.49-145.82,56.72-48.18,139.62-62.63,181.65-54.52a62.89,62.89,0,0,1,14.17,4.29c56,25.5,130.18-43.4,290.6-90.7,57.33-16.91,149.1-9.39,220.05,27.13a252.15,252.15,0,0,1,21.84,12.62,216.41,216.41,0,0,1,24.16,18.11q3.8,3.32,7.41,6.79c44.73,43.18,65.46,106.4,32.4,192.1-.35.91-.72,1.83-1.08,2.75,0,.14-.11.28-.17.42a137.11,137.11,0,0,0-7,22.53c-3.47,16.5-2.27,30,2.17,41.62,13.15,34.45,54.76,52.15,87.33,81.5l.72.65a156,156,0,0,1,14,14.31c.93,1.1,1.85,2.2,2.74,3.33.67.83,1.32,1.67,2,2.52,4.94,6.53,8.69,14.1,12.25,22C1201.45,914.89,1202.87,948.83,1197.1,973.2Z" transform="translate(-132.17 -432.12)"/><path class="cls-2" d="M1197.1,973.2,956,972.74l-223.12-.43-82-.16c5-14,46.8-121,101.5-111.74,57.38,9.69,38.33,11.88,173.33,65.64,89.41,35.61,196-49.79,251.89-58.95C1200.89,897.94,1205.27,938.73,1197.1,973.2Z" transform="translate(-132.17 -432.12)"/><path class="cls-3" d="M1076.91,697.46,219.71,808.83a226.75,226.75,0,0,1-7.31-72.31q.27-4.49.74-9l824-228.89q3.81,3.32,7.42,6.79C1089.24,548.55,1110,611.77,1076.91,697.46Z" transform="translate(-132.17 -432.12)"/><path class="cls-4" d="M732.9,972.31l-402.47-.77S267.76,924.59,233.59,848a258.33,258.33,0,0,1-13.19-36.6c-.24-.84-.46-1.68-.69-2.52a235.84,235.84,0,0,1-5.89-30,223.08,223.08,0,0,1-1.43-42.31c.19-3,.44-6,.75-9.06a234.34,234.34,0,0,1,8.93-44.17c25.68,2.72,61.35,12,86.27,40.69,43.13,49.65,189.73,53.28,224.2,38.75s147-31.42,173.7,20C731.11,830.72,732.79,955.68,732.9,972.31Z" transform="translate(-132.17 -432.12)"/><path class="cls-3" d="M224.12,676.48,850.78,467.85,237.2,644.34A247.78,247.78,0,0,0,224.12,676.48Z" transform="translate(-132.17 -432.12)"/><path class="cls-5" d="M323.66,805.82c-15.32-13.07-53.76,9.08-69.74-12.71l-.09-.11c11.56-4.45,28.92-12.15,24.14-16.66s-18.13,6.22-26.54,13.71c-.36-.4-.73-.78-1.1-1.16,11.3-14.45,28.86-39.65,17.29-43.6-11-3.75-18.8,21.89-22.7,39.06-11.82-8-25.41-6.61-31.1-5.51a235.84,235.84,0,0,0,5.89,30c.23.84.45,1.68.69,2.52A258.33,258.33,0,0,0,233.59,848c41.7-3,90.07-6.87,90.07-6.87S339,818.89,323.66,805.82Z" transform="translate(-132.17 -432.12)"/><path class="cls-6" d="M427.79,864.34c-.07-16.9-25.63-34.63-25.63-34.63,4.42-.35,15.7,5.35,15.7,5.35-3-2.68-17.1-7.1-17.1-7.1-4.54-2.9-18.73-4.65-19.54-4.88S395.76,821,395.76,821l-18.44,1.23s-16.57-2.05-28.67-3.27-45.24,3.78-45.24,3.78c1.51-1.28,13.72-3.78,13.72-3.78-15.51,1.57-38.31,5.81-38.34,5.82-13.24.88-22,1.65-22,1.65l-8,144.14s133.29-.7,152.14,0,28.61-26.52,32.8-58.62C435.61,897.08,433.51,879.68,427.79,864.34Z" transform="translate(-132.17 -432.12)"/><path class="cls-7" d="M272.19,825.57s-42.92-3.26-70.14,31.28a47.16,47.16,0,0,0-2.81,4,33.16,33.16,0,0,1,3.68-9.87c-5.59,4.66-7.53,17.33-7.53,17.33h0A70.53,70.53,0,0,0,190.57,887c-3.39,4.15-6.26,7.45-6.26,7.45l6-5.53a107.43,107.43,0,0,0,3.12,37.36c-2.18-.39-5.29-.61-7.42.62,0,0,4.25-1.18,7.75.59a101.87,101.87,0,0,0,3.7,11.11A148.29,148.29,0,0,0,202.25,956a82.16,82.16,0,0,1-1.91-11c7.64,15.55,18.93,26.53,32.07,26.64,35.59.3,79.43-5.16,88.91-51.63S310.92,826.74,272.19,825.57Z" transform="translate(-132.17 -432.12)"/><path class="cls-7" d="M202.25,956a17.08,17.08,0,0,0,.67,2C203,958.13,202.7,957.36,202.25,956Z" transform="translate(-132.17 -432.12)"/><path class="cls-8" d="M255.2,970.48c-9.86,0-21.74-1.68-31.88-7.88-11-6.71-18.12-17.53-21.28-32.15-5.38-24.89-2.74-45.32,7.85-60.71,9.9-14.38,26.62-23.75,48.35-27.09,14.66-2.25,27.36,2.49,36.72,13.71,13.52,16.21,17.4,43.6,9.45,66.6-5.63,16.25-20.64,26.29-40.17,26.85l-1.67,0c-19.67,0-37.41-10.06-43.5-24.84-6.2-15.07-5.88-29.8.91-41.5,6.9-11.87,19.92-19.6,36.67-21.75,15.17-2,23.35,5.11,27.54,11.37,8.08,12.09,8.06,31.72,2.64,41.2-5.22,9.14-19.67,16.19-32.22,15.75-9.05-.33-16-4.52-19.46-11.8-4.5-9.37-4.21-19,.81-26.55,4-6,10.55-9.73,16.6-9.4,6.94.37,9.9,6.18,10.33,11,.37,4.27-1.09,9-4.6,9.85-6.53,1.52-8.84-2-8.94-2.19s-3.52-5.83.86-6.66c5-1,3.71,2.94,3.71,2.94s-1.24,5.38,4,4.16c2.14-.5,3.56-4,3.21-8-.38-4.33-2.85-9.08-8.64-9.39-5.44-.31-11.32,3.08-15,8.6-4.65,7-4.9,16-.69,24.78,4.1,8.53,12,10.57,17.92,10.79,11.94.4,25.67-6.23,30.59-14.85,4.57-8,5.8-26.8-2.57-39.31-5.61-8.38-14.54-12-25.82-10.59-16.19,2.08-28.74,9.49-35.35,20.87-6.5,11.2-6.79,25.38-.8,39.92s23.87,24.27,43.45,23.7c18.76-.54,33.16-10.13,38.53-25.65,7.76-22.44,4-49.11-9.13-64.86-6.23-7.47-17.36-15.8-35.07-13.08-21.22,3.26-37.53,12.36-47.14,26.33-10.3,15-12.85,34.92-7.58,59.31,3.06,14.13,9.94,24.55,20.47,31,21.26,13,54.81,5.13,55.11,5.06l-3.8,2A89.4,89.4,0,0,1,255.2,970.48Z" transform="translate(-132.17 -432.12)"/><path class="cls-8" d="M826.58,839.45c-.08-20.15-30.58-41.3-30.58-41.3,5.27-.42,18.73,6.38,18.73,6.38-3.61-3.19-20.39-8.47-20.39-8.47-5.41-3.46-22.34-5.54-23.31-5.82s17.34-2.5,17.34-2.5l-22,1.47s-19.77-2.44-34.2-3.9-54,4.51-54,4.51c1.81-1.52,16.38-4.51,16.38-4.51-18.51,1.87-45.71,6.94-45.74,6.94-15.79,1-26.27,2-26.27,2L613,966.15s159-.83,181.46,0,34.13-31.63,39.13-69.92C835.91,878.51,833.4,857.75,826.58,839.45Z" transform="translate(-132.17 -432.12)"/><path class="cls-7" d="M641,793.21s-51.19-3.89-83.65,37.31a52.6,52.6,0,0,0-3.36,4.79,39.58,39.58,0,0,1,4.39-11.78c-6.66,5.55-9,20.67-9,20.67h0a84.49,84.49,0,0,0-5.75,22.33c-4,5-7.47,8.89-7.47,8.89l7.21-6.6a128.15,128.15,0,0,0,3.73,44.57c-2.61-.47-6.32-.74-8.86.74,0,0,5.07-1.42,9.24.69a124.14,124.14,0,0,0,4.42,13.26,175.55,175.55,0,0,0,5.67,20.71,96.1,96.1,0,0,1-2.28-13.06c9.11,18.54,22.57,31.63,38.25,31.77,42.45.36,94.74-6.16,106.05-61.58S687.17,794.61,641,793.21Z" transform="translate(-132.17 -432.12)"/><path class="cls-7" d="M557.56,948.79a21.38,21.38,0,0,0,.79,2.38C558.41,951.32,558.09,950.41,557.56,948.79Z" transform="translate(-132.17 -432.12)"/><path class="cls-8" d="M620.72,966.05c-11.77,0-25.94-2-38-9.4-13.07-8-21.61-20.9-25.38-38.34-6.41-29.7-3.26-54.06,9.37-72.41,11.81-17.16,31.75-28.34,57.67-32.32,17.49-2.69,32.64,3,43.8,16.35,16.12,19.34,20.76,52,11.26,79.44-6.7,19.39-24.61,31.36-47.91,32-.66,0-1.33,0-2,0-23.46,0-44.62-12-51.88-29.62-7.4-18-7-35.55,1.08-49.5,8.23-14.17,23.76-23.38,43.74-25.95,18.09-2.33,27.85,6.1,32.85,13.57,9.64,14.42,9.62,37.84,3.15,49.14C652.22,910,635,918.37,620,917.85c-10.8-.38-19-5.38-23.22-14.07-5.36-11.18-5-22.72,1-31.67,4.81-7.21,12.58-11.61,19.8-11.22,8.28.46,11.81,7.37,12.32,13.16.45,5.1-1.29,10.77-5.48,11.75-7.79,1.82-10.55-2.43-10.66-2.61,0,0-4.21-7,1-8,6-1.14,4.42,3.51,4.42,3.51s-1.48,6.42,4.74,5c2.56-.6,4.24-4.76,3.83-9.48-.45-5.17-3.4-10.83-10.31-11.21-6.48-.37-13.5,3.68-17.9,10.27-5.55,8.3-5.85,19.07-.82,29.55,4.89,10.17,14.32,12.61,21.37,12.86,14.25.49,30.62-7.43,36.5-17.7,5.44-9.52,6.9-32-3.08-46.89-6.69-10-17.33-14.37-30.79-12.63-19.31,2.48-34.28,11.32-42.17,24.89-7.76,13.36-8.1,30.27-.95,47.61s28.46,29,51.83,28.27c22.37-.64,39.55-12.08,46-30.59,9.26-26.76,4.78-58.58-10.89-77.37-7.43-8.9-20.71-18.84-41.83-15.6-25.32,3.89-44.76,14.75-56.23,31.41-12.28,17.85-15.32,41.65-9,70.75,3.64,16.84,11.85,29.28,24.4,37,25.37,15.52,65.39,6.12,65.74,6L645,963.31A106.6,106.6,0,0,1,620.72,966.05Z" transform="translate(-132.17 -432.12)"/><path class="cls-9" d="M883.18,479.55a16.07,16.07,0,1,0,16.07,16.07A16.07,16.07,0,0,0,883.18,479.55Z" transform="translate(-132.17 -432.12)"/><path class="cls-4" d="M1078.21,971.32h-33.52c-1.8-1.53,1.24-5,4.41-5.22a19.42,19.42,0,0,1,5.12.61c.46-6.13,3.1-33.67,13-32.56,11.17,1.23,0,12.12-3.15,18.57a150.67,150.67,0,0,0-5.93,14.86c.9.19,1.84.38,2.8.56,1.48-4.54,7-19.82,14-18.93,8.22,1,4.92,7.17-.91,10.8-4.27,2.68-9.52,6.48-12,8.32a36.2,36.2,0,0,0,6.55.52C1074.32,968.71,1077.12,970.41,1078.21,971.32Z" transform="translate(-132.17 -432.12)"/><path class="cls-10" d="M165.83,971.9s56.84-47.19,107.62-30.85c119.72,38.51,131.73-55.13,211.5-4.22s107.67,28.79,180.31,12.39,161,2.34,234,22.72Z" transform="translate(-132.17 -432.12)"/><path class="cls-10" d="M832,960.64s12.62-30.62,22.66-28.07S832,960.64,832,960.64Z" transform="translate(-132.17 -432.12)"/><path class="cls-10" d="M834.36,961.63s14.52-12.48,21.58-9S834.36,961.63,834.36,961.63Z" transform="translate(-132.17 -432.12)"/><path class="cls-10" d="M457.4,926.05s.25-24.08-14.3-25.17S457.4,926.05,457.4,926.05Z" transform="translate(-132.17 -432.12)"/><path class="cls-4" d="M211.09,971.94s38-23.64,65-18.55,66.31-.29,67.66,18.55Z" transform="translate(-132.17 -432.12)"/><path class="cls-4" d="M285.57,962.81s25.24-22.6,37.62-20.51S285.57,962.81,285.57,962.81Z" transform="translate(-132.17 -432.12)"/><path class="cls-4" d="M286.88,960.37c-.27-1.67-.1-29.89,7.72-28.32S286.88,960.37,286.88,960.37Z" transform="translate(-132.17 -432.12)"/><g class="cls-11"><path class="cls-5" d="M675.77,589.57c-4.56,43-24.89,191.21-26.3,201.5,0,4.69-1.53,25.36-29.46,45.06a179.42,179.42,0,0,1-35.69,19.36l-2.09-12.82-.58-3.55c8.94-3.45,20.61-7.33,30.07-13.91,7.16-5,13.64-10.91,18.21-17.86,5.84-8.9,5.86-15.41,5.84-16.16l-.09-.81.14-.62c.21-1.57,21.64-157.46,26.32-201.64,1.18-11.07-1.06-19.87-6.64-26.14-9.72-10.93-27-11.59-27.71-11.61H536.15v-13.7h91.78c1,0,23.8.45,37.81,16.2C674,562.15,677.37,574.49,675.77,589.57Z" transform="translate(-132.17 -432.12)"/></g><g class="cls-11"><path class="cls-5" d="M668.47,595.22c-4.56,43-24.89,191.21-26.3,201.5,0,4.24-1.24,21.56-22.16,39.41-9,7.73-17.56,13.87-35.46,20.78l-2.9-17.79c2.61-1,2.25-.65,5.07-1.92,9.46-4.22,17.24-6.76,25-12,7.16-5,13.64-10.91,18.21-17.86,5.84-8.9,5.86-15.41,5.84-16.16l-.09-.81.14-.62c.21-1.57,21.64-157.46,26.32-201.64,1.18-11.07-1.06-19.87-6.64-26.14-9.72-10.93-27-11.59-27.71-11.61H536.15v-8h84.48c1,0,23.81.45,37.82,16.2C666.69,567.8,670.07,580.14,668.47,595.22Z" transform="translate(-132.17 -432.12)"/></g><path class="cls-12" d="M589.59,923.53l-.1.15L562.92,962.8A20.94,20.94,0,0,1,545.7,972l-226.41.56a20.92,20.92,0,0,1-18.93-12l-22.62-48.31a20.84,20.84,0,0,1-1.63-12.64l7.93-43L314.74,690l22-119.33a21,21,0,0,0,.35-3.79V528c0-11.53,6.72-23.47,18.25-23.47H515.41a20.87,20.87,0,0,1,20.88,20.87v33.3a20.93,20.93,0,0,0,.27,3.35l45.09,277.07.63,3.85,3,18.28,7.65,47,0,.17A20.89,20.89,0,0,1,589.59,923.53Z" transform="translate(-132.17 -432.12)"/><path class="cls-12" d="M523.3,486.91c0,.21,0,.41,0,.62a48.29,48.29,0,0,1-4.08,17H355.34l-2.07-1.06-26.11-13.31s25.58-22.31,47.69-22.31h143s4.92,5.78,5.38,16.46c0,.35,0,.71,0,1.07S523.31,486.39,523.3,486.91Z" transform="translate(-132.17 -432.12)"/><path class="cls-13" d="M523.3,486.91c0,.21,0,.41,0,.62a45.3,45.3,0,0,1-4.42,17H449.59c10.82-4.74,20.68-9.49,26.69-15.5,6.73-6.73,10.17-12.11,10.26-21.18h30.91s5.33,5.78,5.82,16.46c0,.35,0,.71,0,1.07S523.31,486.39,523.3,486.91Z" transform="translate(-132.17 -432.12)"/><path class="cls-14" d="M567.17,919.6l-15.36,22.62a30.18,30.18,0,0,1-24.91,13.23l-178.68.48a43.44,43.44,0,0,1-39.33-25L298,907.75a36.6,36.6,0,0,1-2.82-22.26l5.72-30.37,46-244.59a1.2,1.2,0,0,1,1-1c14.85-1.78,64.59-12,79.38-2.76,29.53,18.36,52.63-3.52,101.67.83a1.2,1.2,0,0,1,1.08,1L569.58,864l4.11,26.63A40.41,40.41,0,0,1,567.17,919.6Z" transform="translate(-132.17 -432.12)"/><path class="cls-13" d="M589.59,923.53l-.1.15L562.92,962.8a20.83,20.83,0,0,1-8.79,7.34H483.72l8.89-14.59,24-39.42a54.13,54.13,0,0,0,7-37.74L475.82,611.62l-10.59-59a15.6,15.6,0,0,1-.22-3.27c.27-6.14,1.1-27.79-.07-33.48-1.36-6.66-15.35-11.32-15.35-11.32h65.82a20.87,20.87,0,0,1,20.88,20.87v33.3a20.93,20.93,0,0,0,.27,3.35l45.09,277.07.63,3.85,3,18.28,7.65,47,0,.17A20.89,20.89,0,0,1,589.59,923.53Z" transform="translate(-132.17 -432.12)"/><path class="cls-15" d="M567.17,919.6l-15.36,22.62a30.18,30.18,0,0,1-24.91,13.23l-178.68.48a43.44,43.44,0,0,1-39.33-25L298,907.75a36.6,36.6,0,0,1-2.82-22.26s31.95,20.23,129.66,22.61c82.74,2,148.81-17.43,148.81-17.43A40.41,40.41,0,0,1,567.17,919.6Z" transform="translate(-132.17 -432.12)"/><path class="cls-16" d="M365.92,519a4.56,4.56,0,0,0-4.65,4.44v50.24a4.13,4.13,0,0,0,.23,1.36L317.88,878s5.73,38.57,18,59.15a10.46,10.46,0,0,0,9,5h44a6.9,6.9,0,0,0,6.93-8.52C392.2,920,381.42,899,379.8,876.11c-.19-2.65,40.11-304.35,40.11-304.35s-.12-.21-.36-.54V523.47A4.56,4.56,0,0,0,414.9,519Z" transform="translate(-132.17 -432.12)"/><polygon class="cls-12" points="316.21 197.03 328.98 540.11 473.79 540.11 484.53 197.03 316.21 197.03"/><path class="cls-17" d="M607.9,629.77l-1.67,53.3-1.4,44.66-6,192.67c-.29,9.25-6.71,16.57-14.53,16.57H483.38c-8.25,0-15.05-7.69-15.41-17.46l-7.85-210.77-.6-16.13-2.33-62.84Z" transform="translate(-132.17 -432.12)"/><path class="cls-14" d="M604.83,727.73l-6,192.67c-.29,9.25-6.71,16.57-14.53,16.57H483.38c-8.25,0-15.05-7.69-15.41-17.46l-7.85-210.77c12.3-3,36.56-5.21,65.49,11.6C550.15,734.58,582.32,732.19,604.83,727.73Z" transform="translate(-132.17 -432.12)"/><rect class="cls-16" x="343.19" y="207.11" width="18.76" height="329.35"/><rect class="cls-18" x="424.22" y="197.2" width="33.53" height="339.26"/><path class="cls-12" d="M600.38,632.77a1.46,1.46,0,0,0-1.41-1H500.92c-34.49,0,84.95,2.69,84.95,2.69a10.72,10.72,0,0,1,10.72,10.72s3.84,37.22,3.84,36.1V633.69c0-.1,0-.2,0-.3A1.31,1.31,0,0,0,600.38,632.77Z" transform="translate(-132.17 -432.12)"/><path class="cls-12" d="M359.8,478.24a.67.67,0,0,0-.31-.24c-2.28-.81-18,9.55-18.56,10.36s18.56,14,18.56,14h41.84C391,502.48,363,480.77,359.8,478.24Z" transform="translate(-132.17 -432.12)"/><path class="cls-10" d="M585.06,971.3s-37.65,0-42.94.19-36.8-10.89-36.8-10.89h0C506,960.23,529,947.5,543,942.7s41.62,28.11,42,28.6Z" transform="translate(-132.17 -432.12)"/><path class="cls-4" d="M585.06,971.3s-37.65,0-42.94.19-36.8-10.89-36.8-10.89h0c.8-.15,31.19-5.92,42.54-3.73s36.79,14.25,37.19,14.44Z" transform="translate(-132.17 -432.12)"/><path class="cls-19" d="M580.79,971.08s12.08-.72,15.28-3.82c0,0,1.74.49,2,1.26A36.41,36.41,0,0,1,580.79,971.08Z" transform="translate(-132.17 -432.12)"/><path class="cls-4" d="M1076.91,697.47c-.35.91-.72,1.83-1.08,2.75,0,.14-.11.28-.17.42a137.11,137.11,0,0,0-7,22.53c-3.47,16.5-2.27,30,2.17,41.62-30.22-3.8-32-26.27-32-26.27S1043.75,714,976.75,706c-20.52-2.43-35.36-7.85-45.68-15,2.4-8.29,9.36-15.24,9.36-15.24a37.72,37.72,0,0,0-17.09,8.79c-15.55-15.79-14.65-36.77-6.32-52.85,7.05-13.62,23.26-20.31,36.39-30.82,4.31,1.84,10.7,5.46,14.46,11.72,0,0-2-11.06-8.14-17.42,9.12-9.42,15.13-22.24,12.27-43.53-6.28-46.61,31.4-66.9,40.94-71.25a216.41,216.41,0,0,1,24.16,18.11q3.8,3.32,7.41,6.79C1089.24,548.55,1110,611.77,1076.91,697.47Z" transform="translate(-132.17 -432.12)"/><rect class="cls-20" y="539.19" width="1112.01" height="2.83" rx="1.41"/><path class="cls-21" d="M828.65,746.42c-.24-3.53-8-12.24-8-12.24-5.2-12.07-10-40.4-10-40.4-.89-33.08-4.64-52.24-7.67-62.56-1.94-6.6-3.59-9.58-4-10.29l-.1-.17a1.31,1.31,0,0,0-.12.11,38.33,38.33,0,0,0-3.07,3.2c-20.8,24.18-3,62.92-2.48,71.77.56,9.27,20.28,39.67,20.28,39.67h0c.68,2.25,1,3.77.42,5.67-.68,2.23,2.78,4.65,3.2,6.73s1.53,2,1.95,1.36-.94-4.52-1.08-5.51,2.11,2.33,2.62,4.52-1.63,7.64,1.81,6.88S828.88,750,828.65,746.42Z" transform="translate(-132.17 -432.12)"/><path class="cls-22" d="M768.57,576.84s-.17,3.67,2,4.39-2.27,8.66-1.92,14,2.72,7.51,2.72,7.51-1.14-2.94-.5-4.77c0,0-.1,3.79,2.67,5.71s2,3.56,2,3.56,6.26-1.87,6.43-6.56a12.6,12.6,0,0,1,.06,3s5.4-4.06,5.66-8.73-4.26-8.62-6.31-8.69-6.64-4.11-6.52-5.63S768.57,576.84,768.57,576.84Z" transform="translate(-132.17 -432.12)"/><path class="cls-23" d="M785.86,550.57c-3.64-5.53-18.1-2.44-32.29,6.91s-22.74,21.4-19.1,26.93,18.1,2.43,32.29-6.91S789.5,556.1,785.86,550.57Z" transform="translate(-132.17 -432.12)"/><path class="cls-24" d="M817.07,958.47l-7.66,2.85s-33.23-46.1-37.32-86.65a61.68,61.68,0,0,1,1.09-20.74s-.33-1.85-.89-5.13c-.27-1.53-.59-3.38-1-5.49-1.08-6.19-2.57-14.66-4.27-24.3-3.91-22.2-9-50.57-12.91-71.43l2.06-.67,22.31-7.19,4.61-14.65,16.61-4.37s3.71,7.26,7,41.55c.61,4.5,1.17,9.46,1.59,14.84a294.32,294.32,0,0,1-1.58,60.06c-.77,6-1.73,12.12-2.92,18.44-.88,4.63-1,10.95-.64,18.2C804.9,907,817.07,958.47,817.07,958.47Z" transform="translate(-132.17 -432.12)"/><path class="cls-25" d="M808.36,777.09,772.29,848.8c-.27-1.53-.59-3.38-1-5.49-1.08-6.19-2.57-14.66-4.27-24.3-3.91-22.2-9-50.57-12.91-71.43l2.06-.67,22.31-7.19,4.61-14.65,19.84-5.9s.48,8.79,3.8,43.08C807.38,766.75,807.94,771.71,808.36,777.09Z" transform="translate(-132.17 -432.12)"/><path class="cls-24" d="M799.53,722.5c1.1-1.31-7.88.24-7.88.24-14,3.72-51.36-10.38-51.36-10.38s-13.56,11.91-11.78,40.47c.87,13.94,2.46,73.17,4.11,90.69.6,6.35,1.13,10.87,1.34,12.68v0a2.54,2.54,0,0,1-.41,1.55,82.57,82.57,0,0,0-6.12,12.86C711.18,914,730,967.34,730,967.34l4.87-2S745.5,906,754.18,879.74a51.45,51.45,0,0,1,4.18-10c3.77-6.09,7.27-16,10.45-27.87,6-22.38,10.84-51.48,14.06-74C783.31,767.9,787.94,736.39,799.53,722.5Z" transform="translate(-132.17 -432.12)"/><path class="cls-22" d="M777.87,551.2l-25.51,38.7s-2.91-5.72-6.15-3.67c-5.06,3.19-15.91-7.73-13.65-23.16.15-1,.33-2,.52-2.88,5.09-7.33,10.75-15.5,14.8-21.24C759.59,531.88,777.87,551.2,777.87,551.2Z" transform="translate(-132.17 -432.12)"/><path class="cls-26" d="M789.08,629.37a43.68,43.68,0,0,1-14.22,8.48c-22.52,8.53-34.1-9.91-39.29-23a20.33,20.33,0,0,1,7.55-3.49c1.66-.43,3.41-.8,4.86-1.07,2.34-2.35,5.12-11.07,4.25-23.9l1.13.15,19,2.52s0,5.94.29,11.51c.27,4.35.78,8.47,1.73,9.37,1.48.11,2.36.2,2.36.2v0A118.55,118.55,0,0,1,789.08,629.37Z" transform="translate(-132.17 -432.12)"/><path class="cls-23" d="M772.37,589.12s0,5.93.3,11.5c-10.53.37-16.69-8.86-19.31-14Z" transform="translate(-132.17 -432.12)"/><path class="cls-26" d="M776.22,594.16s-24.83,2-25.83-13.49S745.5,555,761.31,553.09s19.28,3.79,20.87,8.87S782.65,593.25,776.22,594.16Z" transform="translate(-132.17 -432.12)"/><path class="cls-22" d="M780.9,553.4c-4.14-4.41-7-3.21-8.52-1.7-14.06-6.61-22.11,5-22.11,5a29.65,29.65,0,0,1-8.56,18.09s4.7,2.51,15-.84c3.14-1,5.84-3.47,8.09-6.37a58.19,58.19,0,0,1-9.21,12.82c12.11-6.56,16-24.23,16.4-26.1,1.6,1.27,4.78,4,5.88,6.88,1.49,3.87,2.56,12,4.91,11.52C782.76,572.69,787.1,560,780.9,553.4Z" transform="translate(-132.17 -432.12)"/><path class="cls-20" d="M758.26,971.32H719.73s-.93-5.88,1.08-10.33c1.93-4.28,5-6.22,4.23-11.4,2.45,2.52,6.44,5.35,12,4.6.69,1.11,4.41,7,6.69,8.67C746.26,964.67,757.49,964,758.26,971.32Z" transform="translate(-132.17 -432.12)"/><path class="cls-7" d="M805.52,633.42c-3.09-15.46-12.66-19.89-12.66-19.89a56.22,56.22,0,0,0-10.49-2.79c-1.37-.19-2.9-.35-4.58-.48l-1-.07v0c.33.52,9.31,14.31,8.81,18s-33.17,2.48-35.54.58c-1.9-1.54-5.19-11.79-6.42-15.79l-.5-1.61s-11.4,2-16.77,6.43a49.37,49.37,0,0,1,6.85,10c.26.53.51,1.06.74,1.59a24,24,0,0,1,1.19,3.46,7,7,0,0,1-.79,4.84,34.42,34.42,0,0,1-3.24,5.05c-.88,1.18-1.83,2.44-2.79,3.77.68,2.26,1.56,5,2.54,8A214.52,214.52,0,0,1,737,677a21.36,21.36,0,0,1-.22,9.48,22.31,22.31,0,0,1-1.24,3.61c-.82,1.82-1,4.34-1.93,6.7-3.73,9.67-8,22.28-3.73,28.87,2.88,8.42,69.58-12,65.09-20.86,0,0,2.66-46.33,4.49-60.67.06-.53.11-1,.14-1.55a23.61,23.61,0,0,0,0-2.38C805.37,637.58,805.52,633.42,805.52,633.42Z" transform="translate(-132.17 -432.12)"/><path class="cls-20" d="M841,971.32H802.47S801,965.17,803.56,961c2.24-3.71,1.38-5.81-.28-8.88a15,15,0,0,0,6.5,1.23,13.49,13.49,0,0,0,5.73-2c1.66,1.89,8.76,9.94,11,11.54C829,964.67,840.24,964,841,971.32Z" transform="translate(-132.17 -432.12)"/><path class="cls-8" d="M732,570.68s-11.55-23,4.59-32.07,28-5.52,36.83,5.6Z" transform="translate(-132.17 -432.12)"/><path class="cls-7" d="M797,541.68c-3.32-5.32-14.94-4.46-29,1.28a114.83,114.83,0,0,0-17.18,8.89,110.31,110.31,0,0,0-18.62,14.39c-9.28,9.08-13.81,17.77-10.81,22.59,3.34,5.35,15.07,4.46,29.2-1.36-1.15-1.26-2.76-2.31-4.45-1.24s-4.17.53-6.51-1.33a5.09,5.09,0,0,1-3.71-2.1,4.45,4.45,0,0,1-.53-3c.72-5.37,8.34-13.71,19.27-20.53,8.4-5.24,16.75-8.33,22.5-8.69,3.35-.22,5.81.48,6.89,2.22.94,1.49.73,3.58-.42,6a22,22,0,0,1,.38,7.54C794.8,556.52,800.27,546.86,797,541.68Z" transform="translate(-132.17 -432.12)"/><path class="cls-7" d="M759.5,691.49a114.31,114.31,0,0,1-26.38,4.93c.92-2.36,1.59-4.5,2.41-6.32a22.31,22.31,0,0,0,1.24-3.61A21.21,21.21,0,0,0,737,677c-1.71-8.36-6.26-22.62-8.28-28.91,5.39-12,11-5.46,11-5.46S756,650,762.88,663.41,767.79,688.83,759.5,691.49Z" transform="translate(-132.17 -432.12)"/><path class="cls-27" d="M738.64,612.43a48.84,48.84,0,0,1,19.55,30.71l4.69-1.49s-1.82-14.92-19.76-30.24a19.42,19.42,0,0,0-2.28.42C740.25,612,738.64,612.43,738.64,612.43Z" transform="translate(-132.17 -432.12)"/><path class="cls-27" d="M793.5,643.67l-4.92.32a49.83,49.83,0,0,0-10.79-33.73c1.68.14,3.21.3,4.58.48C795.23,629.35,793.5,643.67,793.5,643.67Z" transform="translate(-132.17 -432.12)"/><path class="cls-24" d="M758.66,654.73c-.3-1.29-3.31-13.83-3.31-13.83s-.69-3.93,6.2-4.31,31.34-1.68,31.34-1.68a7.59,7.59,0,0,1,3.38,6.14c.05,4.12,3.38,27.73,3.38,27.73l3.42,51.92-74.56,32.13s-5.11-26.24.62-44.53c3.33-10.67,7.64-21.81,7.64-21.81S763.3,674.45,758.66,654.73Z" transform="translate(-132.17 -432.12)"/><path class="cls-7" d="M758,641.32a2.06,2.06,0,1,1,2.58,1.34A2.05,2.05,0,0,1,758,641.32Z" transform="translate(-132.17 -432.12)"/><path class="cls-8" d="M758.35,641.2a2.06,2.06,0,1,1,2.59,1.34A2,2,0,0,1,758.35,641.2Z" transform="translate(-132.17 -432.12)"/><path class="cls-27" d="M759,640.58a.3.3,0,1,1,.29.3A.3.3,0,0,1,759,640.58Z" transform="translate(-132.17 -432.12)"/><path class="cls-27" d="M761,640.58a.3.3,0,1,1,.3.3A.29.29,0,0,1,761,640.58Z" transform="translate(-132.17 -432.12)"/><path class="cls-7" d="M788.31,638.7A2.06,2.06,0,1,1,790.9,640,2.07,2.07,0,0,1,788.31,638.7Z" transform="translate(-132.17 -432.12)"/><path class="cls-8" d="M788.67,638.59a2.06,2.06,0,1,1,2.58,1.34A2.05,2.05,0,0,1,788.67,638.59Z" transform="translate(-132.17 -432.12)"/><path class="cls-27" d="M789.35,638a.31.31,0,0,1,.3-.3.3.3,0,0,1,.3.3.29.29,0,0,1-.3.3A.3.3,0,0,1,789.35,638Z" transform="translate(-132.17 -432.12)"/><path class="cls-27" d="M791.31,638a.29.29,0,0,1,.3-.3.3.3,0,0,1,.3.3.31.31,0,0,1-.3.3A.3.3,0,0,1,791.31,638Z" transform="translate(-132.17 -432.12)"/><path class="cls-22" d="M735.46,579.78s-.17,3.68,2,4.4-2.27,8.65-1.92,14,2.73,7.51,2.73,7.51-1.14-2.94-.51-4.77c0,0-.1,3.79,2.67,5.71s2,3.56,2,3.56,6.25-1.87,6.43-6.56a12.22,12.22,0,0,1,.05,3s5.4-4.06,5.66-8.74-4.25-8.61-6.31-8.68-6.64-4.11-6.51-5.63S735.46,579.78,735.46,579.78Z" transform="translate(-132.17 -432.12)"/><path class="cls-14" d="M768.56,585.51s3.7,2.24,6.34,2,4-3.4,4-3.4A21.86,21.86,0,0,0,768.56,585.51Z" transform="translate(-132.17 -432.12)"/><path class="cls-26" d="M755.78,704.5c-2.31-1.42-4.87-.37-7.14.88a2.08,2.08,0,0,0,.6-2.12c-.13-.45-1.62,1.1-3.22,1.81a4,4,0,0,0-2,2.52c-.58,0-2.93-1.28-5-2.51-9.06-5.87-24.87-31.13-25.33-33.32s19.82-21.85,26-29.12-3.72-28.54-13.31-24.8c0,0-27.66,32.67-36.82,51.08,0,0,9.54,20.77,39.64,39.34l0,0s8.53,5.38,12.47,6.69c4.11,1.36,9.93-1.53,12.29-1.88s7.28,1.69,8.74,0S760,707.07,755.78,704.5Z" transform="translate(-132.17 -432.12)"/><path class="cls-8" d="M726.35,617.84,713.93,630s2.83,17.93,21.64,20.27c0,0,15.44-12.36,6.22-25.23S726.35,617.84,726.35,617.84Z" transform="translate(-132.17 -432.12)"/><path class="cls-28" d="M1114.49,817.41s28,107.88,25.45,116.41-16.55,37.5-16.55,37.5h13.52a10.19,10.19,0,0,0,5.23-9.37c-.22-6.68,18.73-32.76,18.73-32.76s-7.43-41.42,0-57.73C1192.88,801.2,1139.27,801.87,1114.49,817.41Z" transform="translate(-132.17 -432.12)"/><path class="cls-28" d="M970.88,854.74s8,58,8.47,61.52,4.24,8,4,13.82-2.23,25.41-8.47,30.31S968,971.32,968,971.32h16.94s2.9-5.8,2.45-9.81,4.69-8.25,4.91-16.5,0-23.62,2.23-29,1.56-42.13,8.91-50.38S970.88,854.74,970.88,854.74Z" transform="translate(-132.17 -432.12)"/><path class="cls-15" d="M1155.18,835.36c.19,2.68.28,5.16.28,7.65-.46,62.74-62.56,44-64.77,42.29-2.39-1.66-6.72-1.48-6.72-1.48-31,12.35-74.54,1-83.57-2.67s-33.07,5.44-44.22,4.61c-4.51-.37-8.29-5.07-11.15-11a83.19,83.19,0,0,1-6.72-22.95c-.19-2.11-3-10.22-6.91-20.17-1.57-3.87-3.32-8.11-5.16-12.44-.37-.74-.65-1.57-1-2.3.93-1,1.75-2.12,2.58-3.23,4.89-6.45,8.3-14,12.07-21.56,3.87-7.92,8-16,14.19-23.31,9.12-2.85,20,2.31,24.51,2A126.15,126.15,0,0,0,993.68,769c1.93-.37,3.68-.65,5.34-.92,9.21-1.39,65,5.8,104.48,6.91,8.11.27,15.48.18,21.65-.19.46,0,.92-.09,1.38-.09,16.49-.92,25.24.09,29.85,1.57,5.07,1.56,5.16,3.5,5.16,3.5C1177.3,795.19,1155.18,835.36,1155.18,835.36Z" transform="translate(-132.17 -432.12)"/><path class="cls-15" d="M950.58,854.74s8,58,8.47,61.52,4.24,8,4,13.82-2.23,25.41-8.47,30.31-6.91,10.93-6.91,10.93h16.94s2.9-5.8,2.45-9.81,4.69-8.25,4.91-16.5,0-23.62,2.23-29,1.56-42.13,8.91-50.38S950.58,854.74,950.58,854.74Z" transform="translate(-132.17 -432.12)"/><path class="cls-15" d="M1097.06,841.54s22.56,83.75,20.06,92.28-16.55,37.5-16.55,37.5h13.51a10.21,10.21,0,0,0,5.24-9.37c-.23-6.68,18.72-32.76,18.72-32.76s1.53-47.28,12.68-61.32S1121.83,826,1097.06,841.54Z" transform="translate(-132.17 -432.12)"/><path class="cls-29" d="M867.16,863a26.8,26.8,0,0,1-1.72,2.1,32.84,32.84,0,0,1-4,.2,10.87,10.87,0,0,1-5.4-1.47,6.78,6.78,0,0,1-2.65-3.15s.77-2,4.79-2.5c3-.38,5.86-2.43,8.33-2.69h0a3.52,3.52,0,0,1,2.49.59C870.86,857.36,868.83,860.74,867.16,863Z" transform="translate(-132.17 -432.12)"/><path class="cls-29" d="M862.89,870.79c-.11,0-1.52.21-3.36.21-3,0-7.06-.72-8.7-4.63,0,0,.76-2,4.78-2.5a3.34,3.34,0,0,0,.42-.07c2.58-.46,5.12-2.08,7.35-2.53a3.73,3.73,0,0,1,3.06.49,1.64,1.64,0,0,1,.72,1.21C867.53,865.74,862.89,870.79,862.89,870.79Z" transform="translate(-132.17 -432.12)"/><path class="cls-15" d="M954.8,786.16c-1.11,28.75-6.45,83.75-9.77,88.64A127.5,127.5,0,0,0,925,877c-16.58,3.4-21.19,9.67-22.76,12.62-2.94,5.89-16.76,19.35-19.16,19.81s-4,3.68-6.54,8.93-7.46,5.62-11.61,5.9-7.55-4.79-7.65-6,2.12-5.16,1.75-10.32,3-20.54.28-24.69c-1.75-2.67-.74-8.38.18-12.25.56-2.31,1.11-3.87,1.11-3.87a9.68,9.68,0,0,1,.83-1.84c.55-1.2,1.2-2.58,1.93-4.06.83-1.75,1.94-3.68,3.14-5.8A238.25,238.25,0,0,1,888.74,823a219.8,219.8,0,0,1,35.93-35.75,160.17,160.17,0,0,1,29.39-18.43C955,769.21,955.17,776.12,954.8,786.16Z" transform="translate(-132.17 -432.12)"/><path class="cls-28" d="M967.67,840.52c.58-1.48.28-26.7,18.49-31.88s28.16,2.79,50.88-6.38,46.63-16.74,49-6.77-2,37.86,0,50.61-41.13,17.28-58.83,9.44S961.27,856.86,967.67,840.52Z" transform="translate(-132.17 -432.12)"/><path class="cls-28" d="M1161.56,779.84a45.73,45.73,0,0,1,13.78,28c2,17.94-3.59,96.74-3.59,96.74l-4.55-.26-4.88-87.18Z" transform="translate(-132.17 -432.12)"/><path class="cls-27" d="M1166.44,914.61s9.83-10.58,3.72-13-3.72,4.78-3.72,7.57Z" transform="translate(-132.17 -432.12)"/><path class="cls-14" d="M1156.38,776.31c-11.42,5.62-24,10.78-31.51,11-16.3.28-55.92-9.12-72-10.13s-81.45,14.09-96.83,9.21a2.47,2.47,0,0,0-1.2-.19c-3.41-.27-8.57,2.12-14.93,6-3.59,2.31-7.55,5.07-11.7,8.2-26.81,20.27-61.63,55.1-61.63,55.1A238.25,238.25,0,0,1,888.74,823a219.8,219.8,0,0,1,35.93-35.75,160.17,160.17,0,0,1,29.39-18.43c9.12-2.85,20,2.31,24.51,2A126.15,126.15,0,0,0,993.68,769c1.93-.37,3.68-.65,5.34-.92,9.21-1.39,65,5.8,104.48,6.91,8.11.27,15.48.18,21.65-.19.46,0,.92-.09,1.38-.09C1143,773.82,1151.77,774.83,1156.38,776.31Z" transform="translate(-132.17 -432.12)"/><path class="cls-28" d="M1103.48,775c-7.13,5.82-20.8,8.14-40.13,4.54-23.52-4.39-29.1,6-48.63,6.77-17.23.7-20.49-13.86-21-17.3,1.89-.32,3.69-.63,5.36-.88C1008.21,766.76,1064.09,773.89,1103.48,775Z" transform="translate(-132.17 -432.12)"/><path class="cls-28" d="M927.8,813.71a40.48,40.48,0,0,1-1.56,5.53,45.63,45.63,0,0,1-3,6c-10.41,16.58-.56,36.48,1.84,51.78-16.58,3.4-21.19,9.67-22.76,12.62-2.94,5.89-16.76,19.35-19.16,19.81s-4,3.68-6.54,8.93-7.46,5.62-11.61,5.9-7.55-4.79-7.65-6,2.12-5.16,1.75-10.32,3-20.54.28-24.69c-1.75-2.67-.74-8.38.18-12.25-2.94,0-7.09-.74-8.75-4.61,0,0,.83-2,4.79-2.58H856a7.32,7.32,0,0,1-2.67-3.22s.83-1.94,4.79-2.49c3-.37,5.9-2.4,8.39-2.67A238.25,238.25,0,0,1,888.74,823a219.8,219.8,0,0,1,35.93-35.75,54.68,54.68,0,0,1,3.5,13.08A40.44,40.44,0,0,1,927.8,813.71Z" transform="translate(-132.17 -432.12)"/><path class="cls-28" d="M1155.2,835.35c.18,2.67.25,5.21.24,7.64-20.24,15-55.72,7.43-58.38-10.62-3.07-20.79,24.87-23.73,22.82-40.86-.83-7,2.46-12.59,6.65-16.77,34.7-2,35,5.1,35,5.1C1177.27,795.23,1155.2,835.35,1155.2,835.35Z" transform="translate(-132.17 -432.12)"/></svg>